<svg width="792" height="175" viewBox="0 0 792 175" fill="none" xmlns="http://www.w3.org/2000/svg">
<path d="M292.912 135.28C287.109 135.28 282.032 134.213 277.68 132.08C273.413 129.861 270.085 126.704 267.696 122.608C265.392 118.427 264.24 113.563 264.24 108.016V66.544C264.24 60.912 265.392 56.048 267.696 51.952C270.085 47.856 273.413 44.7413 277.68 42.608C282.032 40.3893 287.109 39.28 292.912 39.28C298.715 39.28 303.749 40.3893 308.016 42.608C312.283 44.8267 315.568 47.984 317.872 52.08C320.261 56.0907 321.456 60.912 321.456 66.544H307.632C307.632 61.68 306.352 57.968 303.792 55.408C301.232 52.848 297.605 51.568 292.912 51.568C288.219 51.568 284.549 52.848 281.904 55.408C279.344 57.968 278.064 61.6373 278.064 66.416V108.016C278.064 112.795 279.344 116.507 281.904 119.152C284.549 121.712 288.219 122.992 292.912 122.992C297.605 122.992 301.232 121.712 303.792 119.152C306.352 116.507 307.632 112.795 307.632 108.016H321.456C321.456 113.563 320.261 118.384 317.872 122.48C315.568 126.576 312.283 129.733 308.016 131.952C303.749 134.171 298.715 135.28 292.912 135.28ZM369.15 135.152C363.347 135.152 358.313 134.043 354.046 131.824C349.779 129.605 346.494 126.448 344.19 122.352C341.886 118.256 340.734 113.435 340.734 107.888V89.712C340.734 84.08 341.886 79.2587 344.19 75.248C346.494 71.152 349.779 67.9947 354.046 65.776C358.313 63.5573 363.347 62.448 369.15 62.448C374.953 62.448 379.987 63.5573 384.254 65.776C388.521 67.9947 391.806 71.152 394.11 75.248C396.414 79.2587 397.566 84.08 397.566 89.712V107.888C397.566 113.435 396.414 118.256 394.11 122.352C391.806 126.448 388.521 129.605 384.254 131.824C379.987 134.043 374.953 135.152 369.15 135.152ZM369.15 122.992C373.843 122.992 377.47 121.712 380.03 119.152C382.59 116.507 383.87 112.752 383.87 107.888V89.712C383.87 84.7627 382.59 81.008 380.03 78.448C377.47 75.888 373.843 74.608 369.15 74.608C364.542 74.608 360.915 75.888 358.27 78.448C355.71 81.008 354.43 84.7627 354.43 89.712V107.888C354.43 112.752 355.71 116.507 358.27 119.152C360.915 121.712 364.542 122.992 369.15 122.992ZM440.908 135.28C433.825 135.28 428.151 132.891 423.884 128.112C419.617 123.333 417.484 116.891 417.484 108.784V88.944C417.484 80.752 419.617 74.2667 423.884 69.488C428.151 64.7093 433.825 62.32 440.908 62.32C446.711 62.32 451.319 63.9413 454.732 67.184C458.145 70.3413 459.852 74.6933 459.852 80.24L456.908 77.04H460.108L459.724 60.656V40.56H473.548V134H459.852V120.56H456.908L459.852 117.36C459.852 122.907 458.145 127.301 454.732 130.544C451.319 133.701 446.711 135.28 440.908 135.28ZM445.644 123.248C449.996 123.248 453.409 121.925 455.884 119.28C458.444 116.549 459.724 112.795 459.724 108.016V89.584C459.724 84.8053 458.444 81.0933 455.884 78.448C453.409 75.7173 449.996 74.352 445.644 74.352C441.121 74.352 437.58 75.6747 435.02 78.32C432.46 80.88 431.18 84.6347 431.18 89.584V108.016C431.18 112.965 432.46 116.763 435.02 119.408C437.58 121.968 441.121 123.248 445.644 123.248ZM522.65 135.28C516.933 135.28 511.898 134.171 507.546 131.952C503.279 129.648 499.994 126.448 497.69 122.352C495.386 118.256 494.234 113.477 494.234 108.016V89.584C494.234 84.0373 495.386 79.2587 497.69 75.248C499.994 71.152 503.279 67.9947 507.546 65.776C511.898 63.472 516.933 62.32 522.65 62.32C528.453 62.32 533.487 63.472 537.754 65.776C542.021 67.9947 545.306 71.152 547.61 75.248C549.914 79.2587 551.066 84.0373 551.066 89.584V102.128H507.546V108.016C507.546 113.221 508.826 117.189 511.386 119.92C514.031 122.651 517.829 124.016 522.778 124.016C526.789 124.016 530.031 123.333 532.506 121.968C534.981 120.517 536.517 118.427 537.114 115.696H550.81C549.786 121.669 546.714 126.448 541.594 130.032C536.474 133.531 530.159 135.28 522.65 135.28ZM537.754 93.808V89.456C537.754 84.336 536.474 80.368 533.914 77.552C531.354 74.736 527.599 73.328 522.65 73.328C517.786 73.328 514.031 74.736 511.386 77.552C508.826 80.368 507.546 84.3787 507.546 89.584V92.784L538.778 92.656L537.754 93.808Z" fill="#4BA3DF"/>
<path d="M571.624 134V40.56H597.736C603.88 40.56 609.213 41.7547 613.736 44.144C618.259 46.448 621.757 49.7333 624.232 54C626.792 58.2667 628.072 63.3013 628.072 69.104V105.328C628.072 111.045 626.792 116.08 624.232 120.432C621.757 124.784 618.259 128.155 613.736 130.544C609.213 132.848 603.88 134 597.736 134H571.624ZM585.448 121.456H597.736C602.856 121.456 606.867 120.048 609.768 117.232C612.755 114.331 614.248 110.363 614.248 105.328V69.104C614.248 64.1547 612.755 60.272 609.768 57.456C606.867 54.5547 602.856 53.104 597.736 53.104H585.448V121.456ZM676.15 135.28C670.433 135.28 665.398 134.171 661.046 131.952C656.779 129.648 653.494 126.448 651.19 122.352C648.886 118.256 647.734 113.477 647.734 108.016V89.584C647.734 84.0373 648.886 79.2587 651.19 75.248C653.494 71.152 656.779 67.9947 661.046 65.776C665.398 63.472 670.433 62.32 676.15 62.32C681.953 62.32 686.987 63.472 691.254 65.776C695.521 67.9947 698.806 71.152 701.11 75.248C703.414 79.2587 704.566 84.0373 704.566 89.584V102.128H661.046V108.016C661.046 113.221 662.326 117.189 664.886 119.92C667.531 122.651 671.329 124.016 676.278 124.016C680.289 124.016 683.531 123.333 686.006 121.968C688.481 120.517 690.017 118.427 690.614 115.696H704.31C703.286 121.669 700.214 126.448 695.094 130.032C689.974 133.531 683.659 135.28 676.15 135.28ZM691.254 93.808V89.456C691.254 84.336 689.974 80.368 687.414 77.552C684.854 74.736 681.099 73.328 676.15 73.328C671.286 73.328 667.531 74.736 664.886 77.552C662.326 80.368 661.046 84.3787 661.046 89.584V92.784L692.278 92.656L691.254 93.808ZM743.812 134L720.516 63.6H734.596L749.06 108.656C749.999 111.301 750.809 113.989 751.492 116.72C752.26 119.365 752.815 121.456 753.156 122.992C753.583 121.456 754.137 119.365 754.82 116.72C755.588 113.989 756.356 111.301 757.124 108.656L771.332 63.6H785.284L761.988 134H743.812Z" fill="#7E7AC2"/>
<path d="M103 175L0 125.208V98.7922L103 49V72.6104L32.6872 106.039C29.5517 107.442 26.5731 108.688 23.7511 109.779C20.9292 110.714 18.8128 111.338 17.4018 111.649C18.9696 111.961 21.1644 112.584 23.9863 113.519C26.965 114.455 29.8653 115.623 32.6872 117.026L103 150.688V175Z" fill="#4BA3DF"/>
<path d="M119 -1.37515e-06L222 50.1874L222 76.8126L119 127L119 103.202L189.313 69.5083C192.448 68.0946 195.427 66.838 198.249 65.7384C201.071 64.7959 203.187 64.1676 204.598 63.8534C203.03 63.5393 200.836 62.9109 198.014 61.9685C195.035 61.026 192.135 59.8479 189.313 58.4341L119 24.5046L119 -1.37515e-06Z" fill="#7E7AC2"/>
</svg>
