<svg width="1016" height="949" viewBox="0 0 1016 949" fill="none" xmlns="http://www.w3.org/2000/svg">
<path d="M119 312L16 262.208V235.792L119 186V209.61L48.6872 243.039C45.5517 244.442 42.5731 245.688 39.7511 246.779C36.9292 247.714 34.8128 248.338 33.4018 248.649C34.9696 248.961 37.1644 249.584 39.9863 250.519C42.965 251.455 45.8653 252.623 48.6872 254.026L119 287.688V312Z" fill="#4BA3DF"/>
<path d="M135 137L238 187.187L238 213.813L135 264L135 240.202L205.313 206.508C208.448 205.095 211.427 203.838 214.249 202.738C217.071 201.796 219.187 201.168 220.598 200.853C219.03 200.539 216.836 199.911 214.014 198.968C211.035 198.026 208.135 196.848 205.313 195.434L135 161.505L135 137Z" fill="#7E7AC2"/>
<path d="M373 191L270 141.208V114.792L373 65V88.6104L302.687 122.039C299.552 123.442 296.573 124.688 293.751 125.779C290.929 126.714 288.813 127.338 287.402 127.649C288.97 127.961 291.164 128.584 293.986 129.519C296.965 130.455 299.865 131.623 302.687 133.026L373 166.688V191Z" fill="#4BA3DF"/>
<path d="M389 16L492 66.1874L492 92.8126L389 143L389 119.202L459.313 85.5083C462.448 84.0946 465.427 82.838 468.249 81.7384C471.071 80.7959 473.187 80.1676 474.598 79.8534C473.03 79.5393 470.836 78.9109 468.014 77.9685C465.035 77.026 462.135 75.8479 459.313 74.4341L389 40.5046L389 16Z" fill="#7E7AC2"/>
<path d="M627 312L524 262.208V235.792L627 186V209.61L556.687 243.039C553.552 244.442 550.573 245.688 547.751 246.779C544.929 247.714 542.813 248.338 541.402 248.649C542.97 248.961 545.164 249.584 547.986 250.519C550.965 251.455 553.865 252.623 556.687 254.026L627 287.688V312Z" fill="#4BA3DF"/>
<path d="M643 137L746 187.187L746 213.813L643 264L643 240.202L713.313 206.508C716.448 205.095 719.427 203.838 722.249 202.738C725.071 201.796 727.187 201.168 728.598 200.853C727.03 200.539 724.836 199.911 722.014 198.968C719.035 198.026 716.135 196.848 713.313 195.434L643 161.505L643 137Z" fill="#7E7AC2"/>
<path d="M881 191L778 141.208V114.792L881 65V88.6104L810.687 122.039C807.552 123.442 804.573 124.688 801.751 125.779C798.929 126.714 796.813 127.338 795.402 127.649C796.97 127.961 799.164 128.584 801.986 129.519C804.965 130.455 807.865 131.623 810.687 133.026L881 166.688V191Z" fill="#4BA3DF"/>
<path d="M897 16L1000 66.1874L1000 92.8126L897 143L897 119.202L967.313 85.5083C970.448 84.0946 973.427 82.838 976.249 81.7384C979.071 80.7959 981.187 80.1676 982.598 79.8534C981.03 79.5393 978.836 78.9109 976.014 77.9685C973.035 77.026 970.135 75.8479 967.313 74.4341L897 40.5046L897 16Z" fill="#7E7AC2"/>
<path d="M119 519L16 469.208V442.792L119 393V416.61L48.6872 450.039C45.5517 451.442 42.5731 452.688 39.7511 453.779C36.9292 454.714 34.8128 455.338 33.4018 455.649C34.9696 455.961 37.1644 456.584 39.9863 457.519C42.965 458.455 45.8653 459.623 48.6872 461.026L119 494.688V519Z" fill="#4BA3DF"/>
<path d="M135 344L238 394.187L238 420.813L135 471L135 447.202L205.313 413.508C208.448 412.095 211.427 410.838 214.249 409.738C217.071 408.796 219.187 408.168 220.598 407.853C219.03 407.539 216.836 406.911 214.014 405.968C211.035 405.026 208.135 403.848 205.313 402.434L135 368.505L135 344Z" fill="#7E7AC2"/>
<path d="M373 398L270 348.208V321.792L373 272V295.61L302.687 329.039C299.552 330.442 296.573 331.688 293.751 332.779C290.929 333.714 288.813 334.338 287.402 334.649C288.97 334.961 291.164 335.584 293.986 336.519C296.965 337.455 299.865 338.623 302.687 340.026L373 373.688V398Z" fill="#4BA3DF"/>
<path d="M389 223L492 273.187L492 299.813L389 350L389 326.202L459.313 292.508C462.448 291.095 465.427 289.838 468.249 288.738C471.071 287.796 473.187 287.168 474.598 286.853C473.03 286.539 470.836 285.911 468.014 284.968C465.035 284.026 462.135 282.848 459.313 281.434L389 247.505L389 223Z" fill="#7E7AC2"/>
<path d="M627 519L524 469.208V442.792L627 393V416.61L556.687 450.039C553.552 451.442 550.573 452.688 547.751 453.779C544.929 454.714 542.813 455.338 541.402 455.649C542.97 455.961 545.164 456.584 547.986 457.519C550.965 458.455 553.865 459.623 556.687 461.026L627 494.688V519Z" fill="#4BA3DF"/>
<path d="M643 344L746 394.187L746 420.813L643 471L643 447.202L713.313 413.508C716.448 412.095 719.427 410.838 722.249 409.738C725.071 408.796 727.187 408.168 728.598 407.853C727.03 407.539 724.836 406.911 722.014 405.968C719.035 405.026 716.135 403.848 713.313 402.434L643 368.505L643 344Z" fill="#7E7AC2"/>
<path d="M881 398L778 348.208V321.792L881 272V295.61L810.687 329.039C807.552 330.442 804.573 331.688 801.751 332.779C798.929 333.714 796.813 334.338 795.402 334.649C796.97 334.961 799.164 335.584 801.986 336.519C804.965 337.455 807.865 338.623 810.687 340.026L881 373.688V398Z" fill="#4BA3DF"/>
<path d="M897 223L1000 273.187L1000 299.813L897 350L897 326.202L967.313 292.508C970.448 291.095 973.427 289.838 976.249 288.738C979.071 287.796 981.187 287.168 982.598 286.853C981.03 286.539 978.836 285.911 976.014 284.968C973.035 284.026 970.135 282.848 967.313 281.434L897 247.505L897 223Z" fill="#7E7AC2"/>
<path d="M119 726L16 676.208V649.792L119 600V623.61L48.6872 657.039C45.5517 658.442 42.5731 659.688 39.7511 660.779C36.9292 661.714 34.8128 662.338 33.4018 662.649C34.9696 662.961 37.1644 663.584 39.9863 664.519C42.965 665.455 45.8653 666.623 48.6872 668.026L119 701.688V726Z" fill="#4BA3DF"/>
<path d="M135 551L238 601.187L238 627.813L135 678L135 654.202L205.313 620.508C208.448 619.095 211.427 617.838 214.249 616.738C217.071 615.796 219.187 615.168 220.598 614.853C219.03 614.539 216.836 613.911 214.014 612.968C211.035 612.026 208.135 610.848 205.313 609.434L135 575.505L135 551Z" fill="#7E7AC2"/>
<path d="M373 605L270 555.208V528.792L373 479V502.61L302.687 536.039C299.552 537.442 296.573 538.688 293.751 539.779C290.929 540.714 288.813 541.338 287.402 541.649C288.97 541.961 291.164 542.584 293.986 543.519C296.965 544.455 299.865 545.623 302.687 547.026L373 580.688V605Z" fill="#4BA3DF"/>
<path d="M389 430L492 480.187L492 506.813L389 557L389 533.202L459.313 499.508C462.448 498.095 465.427 496.838 468.249 495.738C471.071 494.796 473.187 494.168 474.598 493.853C473.03 493.539 470.836 492.911 468.014 491.968C465.035 491.026 462.135 489.848 459.313 488.434L389 454.505L389 430Z" fill="#7E7AC2"/>
<path d="M627 726L524 676.208V649.792L627 600V623.61L556.687 657.039C553.552 658.442 550.573 659.688 547.751 660.779C544.929 661.714 542.813 662.338 541.402 662.649C542.97 662.961 545.164 663.584 547.986 664.519C550.965 665.455 553.865 666.623 556.687 668.026L627 701.688V726Z" fill="#4BA3DF"/>
<path d="M643 551L746 601.187L746 627.813L643 678L643 654.202L713.313 620.508C716.448 619.095 719.427 617.838 722.249 616.738C725.071 615.796 727.187 615.168 728.598 614.853C727.03 614.539 724.836 613.911 722.014 612.968C719.035 612.026 716.135 610.848 713.313 609.434L643 575.505L643 551Z" fill="#7E7AC2"/>
<path d="M881 605L778 555.208V528.792L881 479V502.61L810.687 536.039C807.552 537.442 804.573 538.688 801.751 539.779C798.929 540.714 796.813 541.338 795.402 541.649C796.97 541.961 799.164 542.584 801.986 543.519C804.965 544.455 807.865 545.623 810.687 547.026L881 580.688V605Z" fill="#4BA3DF"/>
<path d="M897 430L1000 480.187L1000 506.813L897 557L897 533.202L967.313 499.508C970.448 498.095 973.427 496.838 976.249 495.738C979.071 494.796 981.187 494.168 982.598 493.853C981.03 493.539 978.836 492.911 976.014 491.968C973.035 491.026 970.135 489.848 967.313 488.434L897 454.505L897 430Z" fill="#7E7AC2"/>
<path d="M119 933L16 883.208V856.792L119 807V830.61L48.6872 864.039C45.5517 865.442 42.5731 866.688 39.7511 867.779C36.9292 868.714 34.8128 869.338 33.4018 869.649C34.9696 869.961 37.1644 870.584 39.9863 871.519C42.965 872.455 45.8653 873.623 48.6872 875.026L119 908.688V933Z" fill="#4BA3DF"/>
<path d="M135 758L238 808.187L238 834.813L135 885L135 861.202L205.313 827.508C208.448 826.095 211.427 824.838 214.249 823.738C217.071 822.796 219.187 822.168 220.598 821.853C219.03 821.539 216.836 820.911 214.014 819.968C211.035 819.026 208.135 817.848 205.313 816.434L135 782.505L135 758Z" fill="#7E7AC2"/>
<path d="M373 812L270 762.208V735.792L373 686V709.61L302.687 743.039C299.552 744.442 296.573 745.688 293.751 746.779C290.929 747.714 288.813 748.338 287.402 748.649C288.97 748.961 291.164 749.584 293.986 750.519C296.965 751.455 299.865 752.623 302.687 754.026L373 787.688V812Z" fill="#4BA3DF"/>
<path d="M389 637L492 687.187L492 713.813L389 764L389 740.202L459.313 706.508C462.448 705.095 465.427 703.838 468.249 702.738C471.071 701.796 473.187 701.168 474.598 700.853C473.03 700.539 470.836 699.911 468.014 698.968C465.035 698.026 462.135 696.848 459.313 695.434L389 661.505L389 637Z" fill="#7E7AC2"/>
<path d="M627 933L524 883.208V856.792L627 807V830.61L556.687 864.039C553.552 865.442 550.573 866.688 547.751 867.779C544.929 868.714 542.813 869.338 541.402 869.649C542.97 869.961 545.164 870.584 547.986 871.519C550.965 872.455 553.865 873.623 556.687 875.026L627 908.688V933Z" fill="#4BA3DF"/>
<path d="M643 758L746 808.187L746 834.813L643 885L643 861.202L713.313 827.508C716.448 826.095 719.427 824.838 722.249 823.738C725.071 822.796 727.187 822.168 728.598 821.853C727.03 821.539 724.836 820.911 722.014 819.968C719.035 819.026 716.135 817.848 713.313 816.434L643 782.505L643 758Z" fill="#7E7AC2"/>
<path d="M881 812L778 762.208V735.792L881 686V709.61L810.687 743.039C807.552 744.442 804.573 745.688 801.751 746.779C798.929 747.714 796.813 748.338 795.402 748.649C796.97 748.961 799.164 749.584 801.986 750.519C804.965 751.455 807.865 752.623 810.687 754.026L881 787.688V812Z" fill="#4BA3DF"/>
<path d="M897 637L1000 687.187L1000 713.813L897 764L897 740.202L967.313 706.508C970.448 705.095 973.427 703.838 976.249 702.738C979.071 701.796 981.187 701.168 982.598 700.853C981.03 700.539 978.836 699.911 976.014 698.968C973.035 698.026 970.135 696.848 967.313 695.434L897 661.505L897 637Z" fill="#7E7AC2"/>
</svg>
