<svg width="1016" height="828" viewBox="0 0 1016 828" fill="none" xmlns="http://www.w3.org/2000/svg">
<path d="M119 191L16 141.208V114.792L119 65V88.6104L48.6872 122.039C45.5517 123.442 42.5731 124.688 39.7511 125.779C36.9292 126.714 34.8128 127.338 33.4018 127.649C34.9696 127.961 37.1644 128.584 39.9863 129.519C42.965 130.455 45.8653 131.623 48.6872 133.026L119 166.688V191Z" fill="#4BA3DF"/>
<path d="M135 16L238 66.1874L238 92.8126L135 143L135 119.202L205.313 85.5083C208.448 84.0946 211.427 82.838 214.249 81.7384C217.071 80.7959 219.187 80.1676 220.598 79.8534C219.03 79.5393 216.836 78.9109 214.014 77.9685C211.035 77.026 208.135 75.8479 205.313 74.4341L135 40.5046L135 16Z" fill="#7E7AC2"/>
<path d="M373 191L270 141.208V114.792L373 65V88.6104L302.687 122.039C299.552 123.442 296.573 124.688 293.751 125.779C290.929 126.714 288.813 127.338 287.402 127.649C288.97 127.961 291.164 128.584 293.986 129.519C296.965 130.455 299.865 131.623 302.687 133.026L373 166.688V191Z" fill="#4BA3DF"/>
<path d="M389 16L492 66.1874L492 92.8126L389 143L389 119.202L459.313 85.5083C462.448 84.0946 465.427 82.838 468.249 81.7384C471.071 80.7959 473.187 80.1676 474.598 79.8534C473.03 79.5393 470.836 78.9109 468.014 77.9685C465.035 77.026 462.135 75.8479 459.313 74.4341L389 40.5046L389 16Z" fill="#7E7AC2"/>
<path d="M627 191L524 141.208V114.792L627 65V88.6104L556.687 122.039C553.552 123.442 550.573 124.688 547.751 125.779C544.929 126.714 542.813 127.338 541.402 127.649C542.97 127.961 545.164 128.584 547.986 129.519C550.965 130.455 553.865 131.623 556.687 133.026L627 166.688V191Z" fill="#4BA3DF"/>
<path d="M643 16L746 66.1874L746 92.8126L643 143L643 119.202L713.313 85.5083C716.448 84.0946 719.427 82.838 722.249 81.7384C725.071 80.7959 727.187 80.1676 728.598 79.8534C727.03 79.5393 724.836 78.9109 722.014 77.9685C719.035 77.026 716.135 75.8479 713.313 74.4341L643 40.5046L643 16Z" fill="#7E7AC2"/>
<path d="M881 191L778 141.208V114.792L881 65V88.6104L810.687 122.039C807.552 123.442 804.573 124.688 801.751 125.779C798.929 126.714 796.813 127.338 795.402 127.649C796.97 127.961 799.164 128.584 801.986 129.519C804.965 130.455 807.865 131.623 810.687 133.026L881 166.688V191Z" fill="#4BA3DF"/>
<path d="M897 16L1000 66.1874L1000 92.8126L897 143L897 119.202L967.313 85.5083C970.448 84.0946 973.427 82.838 976.249 81.7384C979.071 80.7959 981.187 80.1676 982.598 79.8534C981.03 79.5393 978.836 78.9109 976.014 77.9685C973.035 77.026 970.135 75.8479 967.313 74.4341L897 40.5046L897 16Z" fill="#7E7AC2"/>
<path d="M119 398L16 348.208V321.792L119 272V295.61L48.6872 329.039C45.5517 330.442 42.5731 331.688 39.7511 332.779C36.9292 333.714 34.8128 334.338 33.4018 334.649C34.9696 334.961 37.1644 335.584 39.9863 336.519C42.965 337.455 45.8653 338.623 48.6872 340.026L119 373.688V398Z" fill="#4BA3DF"/>
<path d="M135 223L238 273.187L238 299.813L135 350L135 326.202L205.313 292.508C208.448 291.095 211.427 289.838 214.249 288.738C217.071 287.796 219.187 287.168 220.598 286.853C219.03 286.539 216.836 285.911 214.014 284.968C211.035 284.026 208.135 282.848 205.313 281.434L135 247.505L135 223Z" fill="#7E7AC2"/>
<path d="M373 398L270 348.208V321.792L373 272V295.61L302.687 329.039C299.552 330.442 296.573 331.688 293.751 332.779C290.929 333.714 288.813 334.338 287.402 334.649C288.97 334.961 291.164 335.584 293.986 336.519C296.965 337.455 299.865 338.623 302.687 340.026L373 373.688V398Z" fill="#4BA3DF"/>
<path d="M389 223L492 273.187L492 299.813L389 350L389 326.202L459.313 292.508C462.448 291.095 465.427 289.838 468.249 288.738C471.071 287.796 473.187 287.168 474.598 286.853C473.03 286.539 470.836 285.911 468.014 284.968C465.035 284.026 462.135 282.848 459.313 281.434L389 247.505L389 223Z" fill="#7E7AC2"/>
<path d="M627 398L524 348.208V321.792L627 272V295.61L556.687 329.039C553.552 330.442 550.573 331.688 547.751 332.779C544.929 333.714 542.813 334.338 541.402 334.649C542.97 334.961 545.164 335.584 547.986 336.519C550.965 337.455 553.865 338.623 556.687 340.026L627 373.688V398Z" fill="#4BA3DF"/>
<path d="M643 223L746 273.187L746 299.813L643 350L643 326.202L713.313 292.508C716.448 291.095 719.427 289.838 722.249 288.738C725.071 287.796 727.187 287.168 728.598 286.853C727.03 286.539 724.836 285.911 722.014 284.968C719.035 284.026 716.135 282.848 713.313 281.434L643 247.505L643 223Z" fill="#7E7AC2"/>
<path d="M881 398L778 348.208V321.792L881 272V295.61L810.687 329.039C807.552 330.442 804.573 331.688 801.751 332.779C798.929 333.714 796.813 334.338 795.402 334.649C796.97 334.961 799.164 335.584 801.986 336.519C804.965 337.455 807.865 338.623 810.687 340.026L881 373.688V398Z" fill="#4BA3DF"/>
<path d="M897 223L1000 273.187L1000 299.813L897 350L897 326.202L967.313 292.508C970.448 291.095 973.427 289.838 976.249 288.738C979.071 287.796 981.187 287.168 982.598 286.853C981.03 286.539 978.836 285.911 976.014 284.968C973.035 284.026 970.135 282.848 967.313 281.434L897 247.505L897 223Z" fill="#7E7AC2"/>
<path d="M119 605L16 555.208V528.792L119 479V502.61L48.6872 536.039C45.5517 537.442 42.5731 538.688 39.7511 539.779C36.9292 540.714 34.8128 541.338 33.4018 541.649C34.9696 541.961 37.1644 542.584 39.9863 543.519C42.965 544.455 45.8653 545.623 48.6872 547.026L119 580.688V605Z" fill="#4BA3DF"/>
<path d="M135 430L238 480.187L238 506.813L135 557L135 533.202L205.313 499.508C208.448 498.095 211.427 496.838 214.249 495.738C217.071 494.796 219.187 494.168 220.598 493.853C219.03 493.539 216.836 492.911 214.014 491.968C211.035 491.026 208.135 489.848 205.313 488.434L135 454.505L135 430Z" fill="#7E7AC2"/>
<path d="M373 605L270 555.208V528.792L373 479V502.61L302.687 536.039C299.552 537.442 296.573 538.688 293.751 539.779C290.929 540.714 288.813 541.338 287.402 541.649C288.97 541.961 291.164 542.584 293.986 543.519C296.965 544.455 299.865 545.623 302.687 547.026L373 580.688V605Z" fill="#4BA3DF"/>
<path d="M389 430L492 480.187L492 506.813L389 557L389 533.202L459.313 499.508C462.448 498.095 465.427 496.838 468.249 495.738C471.071 494.796 473.187 494.168 474.598 493.853C473.03 493.539 470.836 492.911 468.014 491.968C465.035 491.026 462.135 489.848 459.313 488.434L389 454.505L389 430Z" fill="#7E7AC2"/>
<path d="M627 605L524 555.208V528.792L627 479V502.61L556.687 536.039C553.552 537.442 550.573 538.688 547.751 539.779C544.929 540.714 542.813 541.338 541.402 541.649C542.97 541.961 545.164 542.584 547.986 543.519C550.965 544.455 553.865 545.623 556.687 547.026L627 580.688V605Z" fill="#4BA3DF"/>
<path d="M643 430L746 480.187L746 506.813L643 557L643 533.202L713.313 499.508C716.448 498.095 719.427 496.838 722.249 495.738C725.071 494.796 727.187 494.168 728.598 493.853C727.03 493.539 724.836 492.911 722.014 491.968C719.035 491.026 716.135 489.848 713.313 488.434L643 454.505L643 430Z" fill="#7E7AC2"/>
<path d="M881 605L778 555.208V528.792L881 479V502.61L810.687 536.039C807.552 537.442 804.573 538.688 801.751 539.779C798.929 540.714 796.813 541.338 795.402 541.649C796.97 541.961 799.164 542.584 801.986 543.519C804.965 544.455 807.865 545.623 810.687 547.026L881 580.688V605Z" fill="#4BA3DF"/>
<path d="M897 430L1000 480.187L1000 506.813L897 557L897 533.202L967.313 499.508C970.448 498.095 973.427 496.838 976.249 495.738C979.071 494.796 981.187 494.168 982.598 493.853C981.03 493.539 978.836 492.911 976.014 491.968C973.035 491.026 970.135 489.848 967.313 488.434L897 454.505L897 430Z" fill="#7E7AC2"/>
<path d="M119 812L16 762.208V735.792L119 686V709.61L48.6872 743.039C45.5517 744.442 42.5731 745.688 39.7511 746.779C36.9292 747.714 34.8128 748.338 33.4018 748.649C34.9696 748.961 37.1644 749.584 39.9863 750.519C42.965 751.455 45.8653 752.623 48.6872 754.026L119 787.688V812Z" fill="#4BA3DF"/>
<path d="M135 637L238 687.187L238 713.813L135 764L135 740.202L205.313 706.508C208.448 705.095 211.427 703.838 214.249 702.738C217.071 701.796 219.187 701.168 220.598 700.853C219.03 700.539 216.836 699.911 214.014 698.968C211.035 698.026 208.135 696.848 205.313 695.434L135 661.505L135 637Z" fill="#7E7AC2"/>
<path d="M373 812L270 762.208V735.792L373 686V709.61L302.687 743.039C299.552 744.442 296.573 745.688 293.751 746.779C290.929 747.714 288.813 748.338 287.402 748.649C288.97 748.961 291.164 749.584 293.986 750.519C296.965 751.455 299.865 752.623 302.687 754.026L373 787.688V812Z" fill="#4BA3DF"/>
<path d="M389 637L492 687.187L492 713.813L389 764L389 740.202L459.313 706.508C462.448 705.095 465.427 703.838 468.249 702.738C471.071 701.796 473.187 701.168 474.598 700.853C473.03 700.539 470.836 699.911 468.014 698.968C465.035 698.026 462.135 696.848 459.313 695.434L389 661.505L389 637Z" fill="#7E7AC2"/>
<path d="M627 812L524 762.208V735.792L627 686V709.61L556.687 743.039C553.552 744.442 550.573 745.688 547.751 746.779C544.929 747.714 542.813 748.338 541.402 748.649C542.97 748.961 545.164 749.584 547.986 750.519C550.965 751.455 553.865 752.623 556.687 754.026L627 787.688V812Z" fill="#4BA3DF"/>
<path d="M643 637L746 687.187L746 713.813L643 764L643 740.202L713.313 706.508C716.448 705.095 719.427 703.838 722.249 702.738C725.071 701.796 727.187 701.168 728.598 700.853C727.03 700.539 724.836 699.911 722.014 698.968C719.035 698.026 716.135 696.848 713.313 695.434L643 661.505L643 637Z" fill="#7E7AC2"/>
<path d="M881 812L778 762.208V735.792L881 686V709.61L810.687 743.039C807.552 744.442 804.573 745.688 801.751 746.779C798.929 747.714 796.813 748.338 795.402 748.649C796.97 748.961 799.164 749.584 801.986 750.519C804.965 751.455 807.865 752.623 810.687 754.026L881 787.688V812Z" fill="#4BA3DF"/>
<path d="M897 637L1000 687.187L1000 713.813L897 764L897 740.202L967.313 706.508C970.448 705.095 973.427 703.838 976.249 702.738C979.071 701.796 981.187 701.168 982.598 700.853C981.03 700.539 978.836 699.911 976.014 698.968C973.035 698.026 970.135 696.848 967.313 695.434L897 661.505L897 637Z" fill="#7E7AC2"/>
</svg>
