<svg width="2487" height="1970" viewBox="0 0 2487 1970" fill="none" xmlns="http://www.w3.org/2000/svg">
<path d="M325 350L222 300.208V273.792L325 224V247.61L254.687 281.039C251.552 282.442 248.573 283.688 245.751 284.779C242.929 285.714 240.813 286.338 239.402 286.649C240.97 286.961 243.164 287.584 245.986 288.519C248.965 289.455 251.865 290.623 254.687 292.026L325 325.688V350Z" fill="#4BA3DF"/>
<path d="M341 175L444 225.187L444 251.813L341 302L341 278.202L411.313 244.508C414.448 243.095 417.427 241.838 420.249 240.738C423.071 239.796 425.187 239.168 426.598 238.853C425.03 238.539 422.836 237.911 420.014 236.968C417.035 236.026 414.135 234.848 411.313 233.434L341 199.505L341 175Z" fill="#7E7AC2"/>
<path d="M552 0L449 49.7922V76.2078L552 126V102.39L481.687 68.961C478.552 67.5584 475.573 66.3117 472.751 65.2208C469.929 64.2857 467.813 63.6623 466.402 63.3507C467.97 63.039 470.164 62.4156 472.986 61.4805C475.965 60.5454 478.865 59.3766 481.687 57.974L552 24.3117V0Z" fill="#4BA3DF"/>
<path d="M568 175L671 124.813L671 98.1874L568 48L568 71.7978L638.313 105.492C641.448 106.905 644.427 108.162 647.249 109.262C650.071 110.204 652.187 110.832 653.598 111.147C652.03 111.461 649.836 112.089 647.014 113.032C644.035 113.974 641.135 115.152 638.313 116.566L568 150.495L568 175Z" fill="#7E7AC2"/>
<path d="M573 350L676 300.208V273.792L573 224V247.61L643.313 281.039C646.448 282.442 649.427 283.688 652.249 284.779C655.071 285.714 657.187 286.338 658.598 286.649C657.03 286.961 654.836 287.584 652.014 288.519C649.035 289.455 646.135 290.623 643.313 292.026L573 325.688V350Z" fill="#4BA3DF"/>
<path d="M557 175L454 225.187L454 251.813L557 302L557 278.202L486.687 244.508C483.552 243.095 480.573 241.838 477.751 240.738C474.929 239.796 472.813 239.168 471.402 238.853C472.97 238.539 475.164 237.911 477.986 236.968C480.965 236.026 483.865 234.848 486.687 233.434L557 199.505L557 175Z" fill="#7E7AC2"/>
<path d="M800 0L903 49.7922V76.2078L800 126V102.39L870.313 68.961C873.448 67.5584 876.427 66.3117 879.249 65.2208C882.071 64.2857 884.187 63.6623 885.598 63.3507C884.03 63.039 881.836 62.4156 879.014 61.4805C876.035 60.5454 873.135 59.3766 870.313 57.974L800 24.3117V0Z" fill="#4BA3DF"/>
<path d="M784 175L681 124.813L681 98.1874L784 48L784 71.7978L713.687 105.492C710.552 106.905 707.573 108.162 704.751 109.262C701.929 110.204 699.813 110.832 698.402 111.147C699.97 111.461 702.164 112.089 704.986 113.032C707.965 113.974 710.865 115.152 713.687 116.566L784 150.495L784 175Z" fill="#7E7AC2"/>
<path d="M1233 350L1130 300.208V273.792L1233 224V247.61L1162.69 281.039C1159.55 282.442 1156.57 283.688 1153.75 284.779C1150.93 285.714 1148.81 286.338 1147.4 286.649C1148.97 286.961 1151.16 287.584 1153.99 288.519C1156.96 289.455 1159.87 290.623 1162.69 292.026L1233 325.688V350Z" fill="#4BA3DF"/>
<path d="M1249 175L1352 225.187L1352 251.813L1249 302L1249 278.202L1319.31 244.508C1322.45 243.095 1325.43 241.838 1328.25 240.738C1331.07 239.796 1333.19 239.168 1334.6 238.853C1333.03 238.539 1330.84 237.911 1328.01 236.968C1325.04 236.026 1322.13 234.848 1319.31 233.434L1249 199.505L1249 175Z" fill="#7E7AC2"/>
<path d="M1460 0L1357 49.7922V76.2078L1460 126V102.39L1389.69 68.961C1386.55 67.5584 1383.57 66.3117 1380.75 65.2208C1377.93 64.2857 1375.81 63.6623 1374.4 63.3507C1375.97 63.039 1378.16 62.4156 1380.99 61.4805C1383.96 60.5454 1386.87 59.3766 1389.69 57.974L1460 24.3117V0Z" fill="#4BA3DF"/>
<path d="M1476 175L1579 124.813L1579 98.1874L1476 48L1476 71.7978L1546.31 105.492C1549.45 106.905 1552.43 108.162 1555.25 109.262C1558.07 110.204 1560.19 110.832 1561.6 111.147C1560.03 111.461 1557.84 112.089 1555.01 113.032C1552.04 113.974 1549.13 115.152 1546.31 116.566L1476 150.495L1476 175Z" fill="#7E7AC2"/>
<path d="M1481 350L1584 300.208V273.792L1481 224V247.61L1551.31 281.039C1554.45 282.442 1557.43 283.688 1560.25 284.779C1563.07 285.714 1565.19 286.338 1566.6 286.649C1565.03 286.961 1562.84 287.584 1560.01 288.519C1557.04 289.455 1554.13 290.623 1551.31 292.026L1481 325.688V350Z" fill="#4BA3DF"/>
<path d="M1465 175L1362 225.187L1362 251.813L1465 302L1465 278.202L1394.69 244.508C1391.55 243.095 1388.57 241.838 1385.75 240.738C1382.93 239.796 1380.81 239.168 1379.4 238.853C1380.97 238.539 1383.16 237.911 1385.99 236.968C1388.96 236.026 1391.87 234.848 1394.69 233.434L1465 199.505L1465 175Z" fill="#7E7AC2"/>
<path d="M1708 0L1811 49.7922V76.2078L1708 126V102.39L1778.31 68.961C1781.45 67.5584 1784.43 66.3117 1787.25 65.2208C1790.07 64.2857 1792.19 63.6623 1793.6 63.3507C1792.03 63.039 1789.84 62.4156 1787.01 61.4805C1784.04 60.5454 1781.13 59.3766 1778.31 57.974L1708 24.3117V0Z" fill="#4BA3DF"/>
<path d="M1692 175L1589 124.813L1589 98.1874L1692 48L1692 71.7978L1621.69 105.492C1618.55 106.905 1615.57 108.162 1612.75 109.262C1609.93 110.204 1607.81 110.832 1606.4 111.147C1607.97 111.461 1610.16 112.089 1612.99 113.032C1615.96 113.974 1618.87 115.152 1621.69 116.566L1692 150.495L1692 175Z" fill="#7E7AC2"/>
<path d="M2141 350L2038 300.208V273.792L2141 224V247.61L2070.69 281.039C2067.55 282.442 2064.57 283.688 2061.75 284.779C2058.93 285.714 2056.81 286.338 2055.4 286.649C2056.97 286.961 2059.16 287.584 2061.99 288.519C2064.96 289.455 2067.87 290.623 2070.69 292.026L2141 325.688V350Z" fill="#4BA3DF"/>
<path d="M2157 175L2260 225.187L2260 251.813L2157 302L2157 278.202L2227.31 244.508C2230.45 243.095 2233.43 241.838 2236.25 240.738C2239.07 239.796 2241.19 239.168 2242.6 238.853C2241.03 238.539 2238.84 237.911 2236.01 236.968C2233.04 236.026 2230.13 234.848 2227.31 233.434L2157 199.505L2157 175Z" fill="#7E7AC2"/>
<path d="M2368 0L2265 49.7922V76.2078L2368 126V102.39L2297.69 68.961C2294.55 67.5584 2291.57 66.3117 2288.75 65.2208C2285.93 64.2857 2283.81 63.6623 2282.4 63.3507C2283.97 63.039 2286.16 62.4156 2288.99 61.4805C2291.96 60.5454 2294.87 59.3766 2297.69 57.974L2368 24.3117V0Z" fill="#4BA3DF"/>
<path d="M2384 175L2487 124.813L2487 98.1874L2384 48L2384 71.7978L2454.31 105.492C2457.45 106.905 2460.43 108.162 2463.25 109.262C2466.07 110.204 2468.19 110.832 2469.6 111.147C2468.03 111.461 2465.84 112.089 2463.01 113.032C2460.04 113.974 2457.13 115.152 2454.31 116.566L2384 150.495L2384 175Z" fill="#7E7AC2"/>
<path d="M119 530L222 480.208V453.792L119 404V427.61L189.313 461.039C192.448 462.442 195.427 463.688 198.249 464.779C201.071 465.714 203.187 466.338 204.598 466.649C203.03 466.961 200.836 467.584 198.014 468.519C195.035 469.455 192.135 470.623 189.313 472.026L119 505.688V530Z" fill="#4BA3DF"/>
<path d="M103 355L-6.71517e-06 405.187L-4.38752e-06 431.813L103 482L103 458.202L32.6872 424.508C29.5517 423.095 26.5731 421.838 23.7511 420.738C20.9292 419.796 18.8128 419.168 17.4018 418.853C18.9696 418.539 21.1644 417.911 23.9863 416.968C26.965 416.026 29.8653 414.848 32.6872 413.434L103 379.505L103 355Z" fill="#7E7AC2"/>
<path d="M346 180L449 229.792V256.208L346 306V282.39L416.313 248.961C419.448 247.558 422.427 246.312 425.249 245.221C428.071 244.286 430.187 243.662 431.598 243.351C430.03 243.039 427.836 242.416 425.014 241.481C422.035 240.545 419.135 239.377 416.313 237.974L346 204.312V180Z" fill="#4BA3DF"/>
<path d="M330 355L227 304.813L227 278.187L330 228L330 251.798L259.687 285.492C256.552 286.905 253.573 288.162 250.751 289.262C247.929 290.204 245.813 290.832 244.402 291.147C245.97 291.461 248.164 292.089 250.986 293.032C253.965 293.974 256.865 295.152 259.687 296.566L330 330.495L330 355Z" fill="#7E7AC2"/>
<path d="M779 530L676 480.208V453.792L779 404V427.61L708.687 461.039C705.552 462.442 702.573 463.688 699.751 464.779C696.929 465.714 694.813 466.338 693.402 466.649C694.97 466.961 697.164 467.584 699.986 468.519C702.965 469.455 705.865 470.623 708.687 472.026L779 505.688V530Z" fill="#4BA3DF"/>
<path d="M795 355L898 405.187L898 431.813L795 482L795 458.202L865.313 424.508C868.448 423.095 871.427 421.838 874.249 420.738C877.071 419.796 879.187 419.168 880.598 418.853C879.03 418.539 876.836 417.911 874.014 416.968C871.035 416.026 868.135 414.848 865.313 413.434L795 379.505L795 355Z" fill="#7E7AC2"/>
<path d="M1006 180L903 229.792V256.208L1006 306V282.39L935.687 248.961C932.552 247.558 929.573 246.312 926.751 245.221C923.929 244.286 921.813 243.662 920.402 243.351C921.97 243.039 924.164 242.416 926.986 241.481C929.965 240.545 932.865 239.377 935.687 237.974L1006 204.312V180Z" fill="#4BA3DF"/>
<path d="M1022 355L1125 304.813L1125 278.187L1022 228L1022 251.798L1092.31 285.492C1095.45 286.905 1098.43 288.162 1101.25 289.262C1104.07 290.204 1106.19 290.832 1107.6 291.147C1106.03 291.461 1103.84 292.089 1101.01 293.032C1098.04 293.974 1095.13 295.152 1092.31 296.566L1022 330.495L1022 355Z" fill="#7E7AC2"/>
<path d="M1027 530L1130 480.208V453.792L1027 404V427.61L1097.31 461.039C1100.45 462.442 1103.43 463.688 1106.25 464.779C1109.07 465.714 1111.19 466.338 1112.6 466.649C1111.03 466.961 1108.84 467.584 1106.01 468.519C1103.04 469.455 1100.13 470.623 1097.31 472.026L1027 505.688V530Z" fill="#4BA3DF"/>
<path d="M1011 355L908 405.187L908 431.813L1011 482L1011 458.202L940.687 424.508C937.552 423.095 934.573 421.838 931.751 420.738C928.929 419.796 926.813 419.168 925.402 418.853C926.97 418.539 929.164 417.911 931.986 416.968C934.965 416.026 937.865 414.848 940.687 413.434L1011 379.505L1011 355Z" fill="#7E7AC2"/>
<path d="M1254 180L1357 229.792V256.208L1254 306V282.39L1324.31 248.961C1327.45 247.558 1330.43 246.312 1333.25 245.221C1336.07 244.286 1338.19 243.662 1339.6 243.351C1338.03 243.039 1335.84 242.416 1333.01 241.481C1330.04 240.545 1327.13 239.377 1324.31 237.974L1254 204.312V180Z" fill="#4BA3DF"/>
<path d="M1238 355L1135 304.813L1135 278.187L1238 228L1238 251.798L1167.69 285.492C1164.55 286.905 1161.57 288.162 1158.75 289.262C1155.93 290.204 1153.81 290.832 1152.4 291.147C1153.97 291.461 1156.16 292.089 1158.99 293.032C1161.96 293.974 1164.87 295.152 1167.69 296.566L1238 330.495L1238 355Z" fill="#7E7AC2"/>
<path d="M1687 530L1584 480.208V453.792L1687 404V427.61L1616.69 461.039C1613.55 462.442 1610.57 463.688 1607.75 464.779C1604.93 465.714 1602.81 466.338 1601.4 466.649C1602.97 466.961 1605.16 467.584 1607.99 468.519C1610.96 469.455 1613.87 470.623 1616.69 472.026L1687 505.688V530Z" fill="#4BA3DF"/>
<path d="M1703 355L1806 405.187L1806 431.813L1703 482L1703 458.202L1773.31 424.508C1776.45 423.095 1779.43 421.838 1782.25 420.738C1785.07 419.796 1787.19 419.168 1788.6 418.853C1787.03 418.539 1784.84 417.911 1782.01 416.968C1779.04 416.026 1776.13 414.848 1773.31 413.434L1703 379.505L1703 355Z" fill="#7E7AC2"/>
<path d="M1914 180L1811 229.792V256.208L1914 306V282.39L1843.69 248.961C1840.55 247.558 1837.57 246.312 1834.75 245.221C1831.93 244.286 1829.81 243.662 1828.4 243.351C1829.97 243.039 1832.16 242.416 1834.99 241.481C1837.96 240.545 1840.87 239.377 1843.69 237.974L1914 204.312V180Z" fill="#4BA3DF"/>
<path d="M1930 355L2033 304.813L2033 278.187L1930 228L1930 251.798L2000.31 285.492C2003.45 286.905 2006.43 288.162 2009.25 289.262C2012.07 290.204 2014.19 290.832 2015.6 291.147C2014.03 291.461 2011.84 292.089 2009.01 293.032C2006.04 293.974 2003.13 295.152 2000.31 296.566L1930 330.495L1930 355Z" fill="#7E7AC2"/>
<path d="M1935 530L2038 480.208V453.792L1935 404V427.61L2005.31 461.039C2008.45 462.442 2011.43 463.688 2014.25 464.779C2017.07 465.714 2019.19 466.338 2020.6 466.649C2019.03 466.961 2016.84 467.584 2014.01 468.519C2011.04 469.455 2008.13 470.623 2005.31 472.026L1935 505.688V530Z" fill="#4BA3DF"/>
<path d="M1919 355L1816 405.187L1816 431.813L1919 482L1919 458.202L1848.69 424.508C1845.55 423.095 1842.57 421.838 1839.75 420.738C1836.93 419.796 1834.81 419.168 1833.4 418.853C1834.97 418.539 1837.16 417.911 1839.99 416.968C1842.96 416.026 1845.87 414.848 1848.69 413.434L1919 379.505L1919 355Z" fill="#7E7AC2"/>
<path d="M2162 180L2265 229.792V256.208L2162 306V282.39L2232.31 248.961C2235.45 247.558 2238.43 246.312 2241.25 245.221C2244.07 244.286 2246.19 243.662 2247.6 243.351C2246.03 243.039 2243.84 242.416 2241.01 241.481C2238.04 240.545 2235.13 239.377 2232.31 237.974L2162 204.312V180Z" fill="#4BA3DF"/>
<path d="M2146 355L2043 304.813L2043 278.187L2146 228L2146 251.798L2075.69 285.492C2072.55 286.905 2069.57 288.162 2066.75 289.262C2063.93 290.204 2061.81 290.832 2060.4 291.147C2061.97 291.461 2064.16 292.089 2066.99 293.032C2069.96 293.974 2072.87 295.152 2075.69 296.566L2146 330.495L2146 355Z" fill="#7E7AC2"/>
<path d="M325 710L222 660.208V633.792L325 584V607.61L254.687 641.039C251.552 642.442 248.573 643.688 245.751 644.779C242.929 645.714 240.813 646.338 239.402 646.649C240.97 646.961 243.164 647.584 245.986 648.519C248.965 649.455 251.865 650.623 254.687 652.026L325 685.688V710Z" fill="#4BA3DF"/>
<path d="M341 535L444 585.187L444 611.813L341 662L341 638.202L411.313 604.508C414.448 603.095 417.427 601.838 420.249 600.738C423.071 599.796 425.187 599.168 426.598 598.853C425.03 598.539 422.836 597.911 420.014 596.968C417.035 596.026 414.135 594.848 411.313 593.434L341 559.505L341 535Z" fill="#7E7AC2"/>
<path d="M552 360L449 409.792V436.208L552 486V462.39L481.687 428.961C478.552 427.558 475.573 426.312 472.751 425.221C469.929 424.286 467.813 423.662 466.402 423.351C467.97 423.039 470.164 422.416 472.986 421.481C475.965 420.545 478.865 419.377 481.687 417.974L552 384.312V360Z" fill="#4BA3DF"/>
<path d="M568 535L671 484.813L671 458.187L568 408L568 431.798L638.313 465.492C641.448 466.905 644.427 468.162 647.249 469.262C650.071 470.204 652.187 470.832 653.598 471.147C652.03 471.461 649.836 472.089 647.014 473.032C644.035 473.974 641.135 475.152 638.313 476.566L568 510.495L568 535Z" fill="#7E7AC2"/>
<path d="M573 710L676 660.208V633.792L573 584V607.61L643.313 641.039C646.448 642.442 649.427 643.688 652.249 644.779C655.071 645.714 657.187 646.338 658.598 646.649C657.03 646.961 654.836 647.584 652.014 648.519C649.035 649.455 646.135 650.623 643.313 652.026L573 685.688V710Z" fill="#4BA3DF"/>
<path d="M557 535L454 585.187L454 611.813L557 662L557 638.202L486.687 604.508C483.552 603.095 480.573 601.838 477.751 600.738C474.929 599.796 472.813 599.168 471.402 598.853C472.97 598.539 475.164 597.911 477.986 596.968C480.965 596.026 483.865 594.848 486.687 593.434L557 559.505L557 535Z" fill="#7E7AC2"/>
<path d="M800 360L903 409.792V436.208L800 486V462.39L870.313 428.961C873.448 427.558 876.427 426.312 879.249 425.221C882.071 424.286 884.187 423.662 885.598 423.351C884.03 423.039 881.836 422.416 879.014 421.481C876.035 420.545 873.135 419.377 870.313 417.974L800 384.312V360Z" fill="#4BA3DF"/>
<path d="M784 535L681 484.813L681 458.187L784 408L784 431.798L713.687 465.492C710.552 466.905 707.573 468.162 704.751 469.262C701.929 470.204 699.813 470.832 698.402 471.147C699.97 471.461 702.164 472.089 704.986 473.032C707.965 473.974 710.865 475.152 713.687 476.566L784 510.495L784 535Z" fill="#7E7AC2"/>
<path d="M1233 710L1130 660.208V633.792L1233 584V607.61L1162.69 641.039C1159.55 642.442 1156.57 643.688 1153.75 644.779C1150.93 645.714 1148.81 646.338 1147.4 646.649C1148.97 646.961 1151.16 647.584 1153.99 648.519C1156.96 649.455 1159.87 650.623 1162.69 652.026L1233 685.688V710Z" fill="#4BA3DF"/>
<path d="M1249 535L1352 585.187L1352 611.813L1249 662L1249 638.202L1319.31 604.508C1322.45 603.095 1325.43 601.838 1328.25 600.738C1331.07 599.796 1333.19 599.168 1334.6 598.853C1333.03 598.539 1330.84 597.911 1328.01 596.968C1325.04 596.026 1322.13 594.848 1319.31 593.434L1249 559.505L1249 535Z" fill="#7E7AC2"/>
<path d="M1460 360L1357 409.792V436.208L1460 486V462.39L1389.69 428.961C1386.55 427.558 1383.57 426.312 1380.75 425.221C1377.93 424.286 1375.81 423.662 1374.4 423.351C1375.97 423.039 1378.16 422.416 1380.99 421.481C1383.96 420.545 1386.87 419.377 1389.69 417.974L1460 384.312V360Z" fill="#4BA3DF"/>
<path d="M1476 535L1579 484.813L1579 458.187L1476 408L1476 431.798L1546.31 465.492C1549.45 466.905 1552.43 468.162 1555.25 469.262C1558.07 470.204 1560.19 470.832 1561.6 471.147C1560.03 471.461 1557.84 472.089 1555.01 473.032C1552.04 473.974 1549.13 475.152 1546.31 476.566L1476 510.495L1476 535Z" fill="#7E7AC2"/>
<path d="M1481 710L1584 660.208V633.792L1481 584V607.61L1551.31 641.039C1554.45 642.442 1557.43 643.688 1560.25 644.779C1563.07 645.714 1565.19 646.338 1566.6 646.649C1565.03 646.961 1562.84 647.584 1560.01 648.519C1557.04 649.455 1554.13 650.623 1551.31 652.026L1481 685.688V710Z" fill="#4BA3DF"/>
<path d="M1465 535L1362 585.187L1362 611.813L1465 662L1465 638.202L1394.69 604.508C1391.55 603.095 1388.57 601.838 1385.75 600.738C1382.93 599.796 1380.81 599.168 1379.4 598.853C1380.97 598.539 1383.16 597.911 1385.99 596.968C1388.96 596.026 1391.87 594.848 1394.69 593.434L1465 559.505L1465 535Z" fill="#7E7AC2"/>
<path d="M1708 360L1811 409.792V436.208L1708 486V462.39L1778.31 428.961C1781.45 427.558 1784.43 426.312 1787.25 425.221C1790.07 424.286 1792.19 423.662 1793.6 423.351C1792.03 423.039 1789.84 422.416 1787.01 421.481C1784.04 420.545 1781.13 419.377 1778.31 417.974L1708 384.312V360Z" fill="#4BA3DF"/>
<path d="M1692 535L1589 484.813L1589 458.187L1692 408L1692 431.798L1621.69 465.492C1618.55 466.905 1615.57 468.162 1612.75 469.262C1609.93 470.204 1607.81 470.832 1606.4 471.147C1607.97 471.461 1610.16 472.089 1612.99 473.032C1615.96 473.974 1618.87 475.152 1621.69 476.566L1692 510.495L1692 535Z" fill="#7E7AC2"/>
<path d="M2141 710L2038 660.208V633.792L2141 584V607.61L2070.69 641.039C2067.55 642.442 2064.57 643.688 2061.75 644.779C2058.93 645.714 2056.81 646.338 2055.4 646.649C2056.97 646.961 2059.16 647.584 2061.99 648.519C2064.96 649.455 2067.87 650.623 2070.69 652.026L2141 685.688V710Z" fill="#4BA3DF"/>
<path d="M2157 535L2260 585.187L2260 611.813L2157 662L2157 638.202L2227.31 604.508C2230.45 603.095 2233.43 601.838 2236.25 600.738C2239.07 599.796 2241.19 599.168 2242.6 598.853C2241.03 598.539 2238.84 597.911 2236.01 596.968C2233.04 596.026 2230.13 594.848 2227.31 593.434L2157 559.505L2157 535Z" fill="#7E7AC2"/>
<path d="M2368 360L2265 409.792V436.208L2368 486V462.39L2297.69 428.961C2294.55 427.558 2291.57 426.312 2288.75 425.221C2285.93 424.286 2283.81 423.662 2282.4 423.351C2283.97 423.039 2286.16 422.416 2288.99 421.481C2291.96 420.545 2294.87 419.377 2297.69 417.974L2368 384.312V360Z" fill="#4BA3DF"/>
<path d="M2384 535L2487 484.813L2487 458.187L2384 408L2384 431.798L2454.31 465.492C2457.45 466.905 2460.43 468.162 2463.25 469.262C2466.07 470.204 2468.19 470.832 2469.6 471.147C2468.03 471.461 2465.84 472.089 2463.01 473.032C2460.04 473.974 2457.13 475.152 2454.31 476.566L2384 510.495L2384 535Z" fill="#7E7AC2"/>
<path d="M119 890L222 840.208V813.792L119 764V787.61L189.313 821.039C192.448 822.442 195.427 823.688 198.249 824.779C201.071 825.714 203.187 826.338 204.598 826.649C203.03 826.961 200.836 827.584 198.014 828.519C195.035 829.455 192.135 830.623 189.313 832.026L119 865.688V890Z" fill="#4BA3DF"/>
<path d="M103 715L-6.71517e-06 765.187L-4.38752e-06 791.813L103 842L103 818.202L32.6872 784.508C29.5517 783.095 26.5731 781.838 23.7511 780.738C20.9292 779.796 18.8128 779.168 17.4018 778.853C18.9696 778.539 21.1644 777.911 23.9863 776.968C26.965 776.026 29.8653 774.848 32.6872 773.434L103 739.505L103 715Z" fill="#7E7AC2"/>
<path d="M346 540L449 589.792V616.208L346 666V642.39L416.313 608.961C419.448 607.558 422.427 606.312 425.249 605.221C428.071 604.286 430.187 603.662 431.598 603.351C430.03 603.039 427.836 602.416 425.014 601.481C422.035 600.545 419.135 599.377 416.313 597.974L346 564.312V540Z" fill="#4BA3DF"/>
<path d="M330 715L227 664.813L227 638.187L330 588L330 611.798L259.687 645.492C256.552 646.905 253.573 648.162 250.751 649.262C247.929 650.204 245.813 650.832 244.402 651.147C245.97 651.461 248.164 652.089 250.986 653.032C253.965 653.974 256.865 655.152 259.687 656.566L330 690.495L330 715Z" fill="#7E7AC2"/>
<path d="M779 890L676 840.208V813.792L779 764V787.61L708.687 821.039C705.552 822.442 702.573 823.688 699.751 824.779C696.929 825.714 694.813 826.338 693.402 826.649C694.97 826.961 697.164 827.584 699.986 828.519C702.965 829.455 705.865 830.623 708.687 832.026L779 865.688V890Z" fill="#4BA3DF"/>
<path d="M795 715L898 765.187L898 791.813L795 842L795 818.202L865.313 784.508C868.448 783.095 871.427 781.838 874.249 780.738C877.071 779.796 879.187 779.168 880.598 778.853C879.03 778.539 876.836 777.911 874.014 776.968C871.035 776.026 868.135 774.848 865.313 773.434L795 739.505L795 715Z" fill="#7E7AC2"/>
<path d="M1006 540L903 589.792V616.208L1006 666V642.39L935.687 608.961C932.552 607.558 929.573 606.312 926.751 605.221C923.929 604.286 921.813 603.662 920.402 603.351C921.97 603.039 924.164 602.416 926.986 601.481C929.965 600.545 932.865 599.377 935.687 597.974L1006 564.312V540Z" fill="#4BA3DF"/>
<path d="M1022 715L1125 664.813L1125 638.187L1022 588L1022 611.798L1092.31 645.492C1095.45 646.905 1098.43 648.162 1101.25 649.262C1104.07 650.204 1106.19 650.832 1107.6 651.147C1106.03 651.461 1103.84 652.089 1101.01 653.032C1098.04 653.974 1095.13 655.152 1092.31 656.566L1022 690.495L1022 715Z" fill="#7E7AC2"/>
<path d="M1027 890L1130 840.208V813.792L1027 764V787.61L1097.31 821.039C1100.45 822.442 1103.43 823.688 1106.25 824.779C1109.07 825.714 1111.19 826.338 1112.6 826.649C1111.03 826.961 1108.84 827.584 1106.01 828.519C1103.04 829.455 1100.13 830.623 1097.31 832.026L1027 865.688V890Z" fill="#4BA3DF"/>
<path d="M1011 715L908 765.187L908 791.813L1011 842L1011 818.202L940.687 784.508C937.552 783.095 934.573 781.838 931.751 780.738C928.929 779.796 926.813 779.168 925.402 778.853C926.97 778.539 929.164 777.911 931.986 776.968C934.965 776.026 937.865 774.848 940.687 773.434L1011 739.505L1011 715Z" fill="#7E7AC2"/>
<path d="M1254 540L1357 589.792V616.208L1254 666V642.39L1324.31 608.961C1327.45 607.558 1330.43 606.312 1333.25 605.221C1336.07 604.286 1338.19 603.662 1339.6 603.351C1338.03 603.039 1335.84 602.416 1333.01 601.481C1330.04 600.545 1327.13 599.377 1324.31 597.974L1254 564.312V540Z" fill="#4BA3DF"/>
<path d="M1238 715L1135 664.813L1135 638.187L1238 588L1238 611.798L1167.69 645.492C1164.55 646.905 1161.57 648.162 1158.75 649.262C1155.93 650.204 1153.81 650.832 1152.4 651.147C1153.97 651.461 1156.16 652.089 1158.99 653.032C1161.96 653.974 1164.87 655.152 1167.69 656.566L1238 690.495L1238 715Z" fill="#7E7AC2"/>
<path d="M1687 890L1584 840.208V813.792L1687 764V787.61L1616.69 821.039C1613.55 822.442 1610.57 823.688 1607.75 824.779C1604.93 825.714 1602.81 826.338 1601.4 826.649C1602.97 826.961 1605.16 827.584 1607.99 828.519C1610.96 829.455 1613.87 830.623 1616.69 832.026L1687 865.688V890Z" fill="#4BA3DF"/>
<path d="M1703 715L1806 765.187L1806 791.813L1703 842L1703 818.202L1773.31 784.508C1776.45 783.095 1779.43 781.838 1782.25 780.738C1785.07 779.796 1787.19 779.168 1788.6 778.853C1787.03 778.539 1784.84 777.911 1782.01 776.968C1779.04 776.026 1776.13 774.848 1773.31 773.434L1703 739.505L1703 715Z" fill="#7E7AC2"/>
<path d="M1914 540L1811 589.792V616.208L1914 666V642.39L1843.69 608.961C1840.55 607.558 1837.57 606.312 1834.75 605.221C1831.93 604.286 1829.81 603.662 1828.4 603.351C1829.97 603.039 1832.16 602.416 1834.99 601.481C1837.96 600.545 1840.87 599.377 1843.69 597.974L1914 564.312V540Z" fill="#4BA3DF"/>
<path d="M1930 715L2033 664.813L2033 638.187L1930 588L1930 611.798L2000.31 645.492C2003.45 646.905 2006.43 648.162 2009.25 649.262C2012.07 650.204 2014.19 650.832 2015.6 651.147C2014.03 651.461 2011.84 652.089 2009.01 653.032C2006.04 653.974 2003.13 655.152 2000.31 656.566L1930 690.495L1930 715Z" fill="#7E7AC2"/>
<path d="M1935 890L2038 840.208V813.792L1935 764V787.61L2005.31 821.039C2008.45 822.442 2011.43 823.688 2014.25 824.779C2017.07 825.714 2019.19 826.338 2020.6 826.649C2019.03 826.961 2016.84 827.584 2014.01 828.519C2011.04 829.455 2008.13 830.623 2005.31 832.026L1935 865.688V890Z" fill="#4BA3DF"/>
<path d="M1919 715L1816 765.187L1816 791.813L1919 842L1919 818.202L1848.69 784.508C1845.55 783.095 1842.57 781.838 1839.75 780.738C1836.93 779.796 1834.81 779.168 1833.4 778.853C1834.97 778.539 1837.16 777.911 1839.99 776.968C1842.96 776.026 1845.87 774.848 1848.69 773.434L1919 739.505L1919 715Z" fill="#7E7AC2"/>
<path d="M2162 540L2265 589.792V616.208L2162 666V642.39L2232.31 608.961C2235.45 607.558 2238.43 606.312 2241.25 605.221C2244.07 604.286 2246.19 603.662 2247.6 603.351C2246.03 603.039 2243.84 602.416 2241.01 601.481C2238.04 600.545 2235.13 599.377 2232.31 597.974L2162 564.312V540Z" fill="#4BA3DF"/>
<path d="M2146 715L2043 664.813L2043 638.187L2146 588L2146 611.798L2075.69 645.492C2072.55 646.905 2069.57 648.162 2066.75 649.262C2063.93 650.204 2061.81 650.832 2060.4 651.147C2061.97 651.461 2064.16 652.089 2066.99 653.032C2069.96 653.974 2072.87 655.152 2075.69 656.566L2146 690.495L2146 715Z" fill="#7E7AC2"/>
<path d="M325 1070L222 1020.21V993.792L325 944V967.61L254.687 1001.04C251.552 1002.44 248.573 1003.69 245.751 1004.78C242.929 1005.71 240.813 1006.34 239.402 1006.65C240.97 1006.96 243.164 1007.58 245.986 1008.52C248.965 1009.45 251.865 1010.62 254.687 1012.03L325 1045.69V1070Z" fill="#4BA3DF"/>
<path d="M341 895L444 945.187L444 971.813L341 1022L341 998.202L411.313 964.508C414.448 963.095 417.427 961.838 420.249 960.738C423.071 959.796 425.187 959.168 426.598 958.853C425.03 958.539 422.836 957.911 420.014 956.968C417.035 956.026 414.135 954.848 411.313 953.434L341 919.505L341 895Z" fill="#7E7AC2"/>
<path d="M552 720L449 769.792V796.208L552 846V822.39L481.687 788.961C478.552 787.558 475.573 786.312 472.751 785.221C469.929 784.286 467.813 783.662 466.402 783.351C467.97 783.039 470.164 782.416 472.986 781.481C475.965 780.545 478.865 779.377 481.687 777.974L552 744.312V720Z" fill="#4BA3DF"/>
<path d="M568 895L671 844.813L671 818.187L568 768L568 791.798L638.313 825.492C641.448 826.905 644.427 828.162 647.249 829.262C650.071 830.204 652.187 830.832 653.598 831.147C652.03 831.461 649.836 832.089 647.014 833.032C644.035 833.974 641.135 835.152 638.313 836.566L568 870.495L568 895Z" fill="#7E7AC2"/>
<path d="M573 1070L676 1020.21V993.792L573 944V967.61L643.313 1001.04C646.448 1002.44 649.427 1003.69 652.249 1004.78C655.071 1005.71 657.187 1006.34 658.598 1006.65C657.03 1006.96 654.836 1007.58 652.014 1008.52C649.035 1009.45 646.135 1010.62 643.313 1012.03L573 1045.69V1070Z" fill="#4BA3DF"/>
<path d="M557 895L454 945.187L454 971.813L557 1022L557 998.202L486.687 964.508C483.552 963.095 480.573 961.838 477.751 960.738C474.929 959.796 472.813 959.168 471.402 958.853C472.97 958.539 475.164 957.911 477.986 956.968C480.965 956.026 483.865 954.848 486.687 953.434L557 919.505L557 895Z" fill="#7E7AC2"/>
<path d="M800 720L903 769.792V796.208L800 846V822.39L870.313 788.961C873.448 787.558 876.427 786.312 879.249 785.221C882.071 784.286 884.187 783.662 885.598 783.351C884.03 783.039 881.836 782.416 879.014 781.481C876.035 780.545 873.135 779.377 870.313 777.974L800 744.312V720Z" fill="#4BA3DF"/>
<path d="M784 895L681 844.813L681 818.187L784 768L784 791.798L713.687 825.492C710.552 826.905 707.573 828.162 704.751 829.262C701.929 830.204 699.813 830.832 698.402 831.147C699.97 831.461 702.164 832.089 704.986 833.032C707.965 833.974 710.865 835.152 713.687 836.566L784 870.495L784 895Z" fill="#7E7AC2"/>
<path d="M1233 1070L1130 1020.21V993.792L1233 944V967.61L1162.69 1001.04C1159.55 1002.44 1156.57 1003.69 1153.75 1004.78C1150.93 1005.71 1148.81 1006.34 1147.4 1006.65C1148.97 1006.96 1151.16 1007.58 1153.99 1008.52C1156.96 1009.45 1159.87 1010.62 1162.69 1012.03L1233 1045.69V1070Z" fill="#4BA3DF"/>
<path d="M1249 895L1352 945.187L1352 971.813L1249 1022L1249 998.202L1319.31 964.508C1322.45 963.095 1325.43 961.838 1328.25 960.738C1331.07 959.796 1333.19 959.168 1334.6 958.853C1333.03 958.539 1330.84 957.911 1328.01 956.968C1325.04 956.026 1322.13 954.848 1319.31 953.434L1249 919.505L1249 895Z" fill="#7E7AC2"/>
<path d="M1460 720L1357 769.792V796.208L1460 846V822.39L1389.69 788.961C1386.55 787.558 1383.57 786.312 1380.75 785.221C1377.93 784.286 1375.81 783.662 1374.4 783.351C1375.97 783.039 1378.16 782.416 1380.99 781.481C1383.96 780.545 1386.87 779.377 1389.69 777.974L1460 744.312V720Z" fill="#4BA3DF"/>
<path d="M1476 895L1579 844.813L1579 818.187L1476 768L1476 791.798L1546.31 825.492C1549.45 826.905 1552.43 828.162 1555.25 829.262C1558.07 830.204 1560.19 830.832 1561.6 831.147C1560.03 831.461 1557.84 832.089 1555.01 833.032C1552.04 833.974 1549.13 835.152 1546.31 836.566L1476 870.495L1476 895Z" fill="#7E7AC2"/>
<path d="M1481 1070L1584 1020.21V993.792L1481 944V967.61L1551.31 1001.04C1554.45 1002.44 1557.43 1003.69 1560.25 1004.78C1563.07 1005.71 1565.19 1006.34 1566.6 1006.65C1565.03 1006.96 1562.84 1007.58 1560.01 1008.52C1557.04 1009.45 1554.13 1010.62 1551.31 1012.03L1481 1045.69V1070Z" fill="#4BA3DF"/>
<path d="M1465 895L1362 945.187L1362 971.813L1465 1022L1465 998.202L1394.69 964.508C1391.55 963.095 1388.57 961.838 1385.75 960.738C1382.93 959.796 1380.81 959.168 1379.4 958.853C1380.97 958.539 1383.16 957.911 1385.99 956.968C1388.96 956.026 1391.87 954.848 1394.69 953.434L1465 919.505L1465 895Z" fill="#7E7AC2"/>
<path d="M1708 720L1811 769.792V796.208L1708 846V822.39L1778.31 788.961C1781.45 787.558 1784.43 786.312 1787.25 785.221C1790.07 784.286 1792.19 783.662 1793.6 783.351C1792.03 783.039 1789.84 782.416 1787.01 781.481C1784.04 780.545 1781.13 779.377 1778.31 777.974L1708 744.312V720Z" fill="#4BA3DF"/>
<path d="M1692 895L1589 844.813L1589 818.187L1692 768L1692 791.798L1621.69 825.492C1618.55 826.905 1615.57 828.162 1612.75 829.262C1609.93 830.204 1607.81 830.832 1606.4 831.147C1607.97 831.461 1610.16 832.089 1612.99 833.032C1615.96 833.974 1618.87 835.152 1621.69 836.566L1692 870.495L1692 895Z" fill="#7E7AC2"/>
<path d="M2141 1070L2038 1020.21V993.792L2141 944V967.61L2070.69 1001.04C2067.55 1002.44 2064.57 1003.69 2061.75 1004.78C2058.93 1005.71 2056.81 1006.34 2055.4 1006.65C2056.97 1006.96 2059.16 1007.58 2061.99 1008.52C2064.96 1009.45 2067.87 1010.62 2070.69 1012.03L2141 1045.69V1070Z" fill="#4BA3DF"/>
<path d="M2157 895L2260 945.187L2260 971.813L2157 1022L2157 998.202L2227.31 964.508C2230.45 963.095 2233.43 961.838 2236.25 960.738C2239.07 959.796 2241.19 959.168 2242.6 958.853C2241.03 958.539 2238.84 957.911 2236.01 956.968C2233.04 956.026 2230.13 954.848 2227.31 953.434L2157 919.505L2157 895Z" fill="#7E7AC2"/>
<path d="M2368 720L2265 769.792V796.208L2368 846V822.39L2297.69 788.961C2294.55 787.558 2291.57 786.312 2288.75 785.221C2285.93 784.286 2283.81 783.662 2282.4 783.351C2283.97 783.039 2286.16 782.416 2288.99 781.481C2291.96 780.545 2294.87 779.377 2297.69 777.974L2368 744.312V720Z" fill="#4BA3DF"/>
<path d="M2384 895L2487 844.813L2487 818.187L2384 768L2384 791.798L2454.31 825.492C2457.45 826.905 2460.43 828.162 2463.25 829.262C2466.07 830.204 2468.19 830.832 2469.6 831.147C2468.03 831.461 2465.84 832.089 2463.01 833.032C2460.04 833.974 2457.13 835.152 2454.31 836.566L2384 870.495L2384 895Z" fill="#7E7AC2"/>
<path d="M119 1250L222 1200.21V1173.79L119 1124V1147.61L189.313 1181.04C192.448 1182.44 195.427 1183.69 198.249 1184.78C201.071 1185.71 203.187 1186.34 204.598 1186.65C203.03 1186.96 200.836 1187.58 198.014 1188.52C195.035 1189.45 192.135 1190.62 189.313 1192.03L119 1225.69V1250Z" fill="#4BA3DF"/>
<path d="M103 1075L-6.71517e-06 1125.19L-4.38752e-06 1151.81L103 1202L103 1178.2L32.6872 1144.51C29.5517 1143.09 26.5731 1141.84 23.7511 1140.74C20.9292 1139.8 18.8128 1139.17 17.4018 1138.85C18.9696 1138.54 21.1644 1137.91 23.9863 1136.97C26.965 1136.03 29.8653 1134.85 32.6872 1133.43L103 1099.5L103 1075Z" fill="#7E7AC2"/>
<path d="M346 900L449 949.792V976.208L346 1026V1002.39L416.313 968.961C419.448 967.558 422.427 966.312 425.249 965.221C428.071 964.286 430.187 963.662 431.598 963.351C430.03 963.039 427.836 962.416 425.014 961.481C422.035 960.545 419.135 959.377 416.313 957.974L346 924.312V900Z" fill="#4BA3DF"/>
<path d="M330 1075L227 1024.81L227 998.187L330 948L330 971.798L259.687 1005.49C256.552 1006.91 253.573 1008.16 250.751 1009.26C247.929 1010.2 245.813 1010.83 244.402 1011.15C245.97 1011.46 248.164 1012.09 250.986 1013.03C253.965 1013.97 256.865 1015.15 259.687 1016.57L330 1050.5L330 1075Z" fill="#7E7AC2"/>
<path d="M779 1250L676 1200.21V1173.79L779 1124V1147.61L708.687 1181.04C705.552 1182.44 702.573 1183.69 699.751 1184.78C696.929 1185.71 694.813 1186.34 693.402 1186.65C694.97 1186.96 697.164 1187.58 699.986 1188.52C702.965 1189.45 705.865 1190.62 708.687 1192.03L779 1225.69V1250Z" fill="#4BA3DF"/>
<path d="M795 1075L898 1125.19L898 1151.81L795 1202L795 1178.2L865.313 1144.51C868.448 1143.09 871.427 1141.84 874.249 1140.74C877.071 1139.8 879.187 1139.17 880.598 1138.85C879.03 1138.54 876.836 1137.91 874.014 1136.97C871.035 1136.03 868.135 1134.85 865.313 1133.43L795 1099.5L795 1075Z" fill="#7E7AC2"/>
<path d="M1006 900L903 949.792V976.208L1006 1026V1002.39L935.687 968.961C932.552 967.558 929.573 966.312 926.751 965.221C923.929 964.286 921.813 963.662 920.402 963.351C921.97 963.039 924.164 962.416 926.986 961.481C929.965 960.545 932.865 959.377 935.687 957.974L1006 924.312V900Z" fill="#4BA3DF"/>
<path d="M1022 1075L1125 1024.81L1125 998.187L1022 948L1022 971.798L1092.31 1005.49C1095.45 1006.91 1098.43 1008.16 1101.25 1009.26C1104.07 1010.2 1106.19 1010.83 1107.6 1011.15C1106.03 1011.46 1103.84 1012.09 1101.01 1013.03C1098.04 1013.97 1095.13 1015.15 1092.31 1016.57L1022 1050.5L1022 1075Z" fill="#7E7AC2"/>
<path d="M1027 1250L1130 1200.21V1173.79L1027 1124V1147.61L1097.31 1181.04C1100.45 1182.44 1103.43 1183.69 1106.25 1184.78C1109.07 1185.71 1111.19 1186.34 1112.6 1186.65C1111.03 1186.96 1108.84 1187.58 1106.01 1188.52C1103.04 1189.45 1100.13 1190.62 1097.31 1192.03L1027 1225.69V1250Z" fill="#4BA3DF"/>
<path d="M1011 1075L908 1125.19L908 1151.81L1011 1202L1011 1178.2L940.687 1144.51C937.552 1143.09 934.573 1141.84 931.751 1140.74C928.929 1139.8 926.813 1139.17 925.402 1138.85C926.97 1138.54 929.164 1137.91 931.986 1136.97C934.965 1136.03 937.865 1134.85 940.687 1133.43L1011 1099.5L1011 1075Z" fill="#7E7AC2"/>
<path d="M1254 900L1357 949.792V976.208L1254 1026V1002.39L1324.31 968.961C1327.45 967.558 1330.43 966.312 1333.25 965.221C1336.07 964.286 1338.19 963.662 1339.6 963.351C1338.03 963.039 1335.84 962.416 1333.01 961.481C1330.04 960.545 1327.13 959.377 1324.31 957.974L1254 924.312V900Z" fill="#4BA3DF"/>
<path d="M1238 1075L1135 1024.81L1135 998.187L1238 948L1238 971.798L1167.69 1005.49C1164.55 1006.91 1161.57 1008.16 1158.75 1009.26C1155.93 1010.2 1153.81 1010.83 1152.4 1011.15C1153.97 1011.46 1156.16 1012.09 1158.99 1013.03C1161.96 1013.97 1164.87 1015.15 1167.69 1016.57L1238 1050.5L1238 1075Z" fill="#7E7AC2"/>
<path d="M1687 1250L1584 1200.21V1173.79L1687 1124V1147.61L1616.69 1181.04C1613.55 1182.44 1610.57 1183.69 1607.75 1184.78C1604.93 1185.71 1602.81 1186.34 1601.4 1186.65C1602.97 1186.96 1605.16 1187.58 1607.99 1188.52C1610.96 1189.45 1613.87 1190.62 1616.69 1192.03L1687 1225.69V1250Z" fill="#4BA3DF"/>
<path d="M1703 1075L1806 1125.19L1806 1151.81L1703 1202L1703 1178.2L1773.31 1144.51C1776.45 1143.09 1779.43 1141.84 1782.25 1140.74C1785.07 1139.8 1787.19 1139.17 1788.6 1138.85C1787.03 1138.54 1784.84 1137.91 1782.01 1136.97C1779.04 1136.03 1776.13 1134.85 1773.31 1133.43L1703 1099.5L1703 1075Z" fill="#7E7AC2"/>
<path d="M1914 900L1811 949.792V976.208L1914 1026V1002.39L1843.69 968.961C1840.55 967.558 1837.57 966.312 1834.75 965.221C1831.93 964.286 1829.81 963.662 1828.4 963.351C1829.97 963.039 1832.16 962.416 1834.99 961.481C1837.96 960.545 1840.87 959.377 1843.69 957.974L1914 924.312V900Z" fill="#4BA3DF"/>
<path d="M1930 1075L2033 1024.81L2033 998.187L1930 948L1930 971.798L2000.31 1005.49C2003.45 1006.91 2006.43 1008.16 2009.25 1009.26C2012.07 1010.2 2014.19 1010.83 2015.6 1011.15C2014.03 1011.46 2011.84 1012.09 2009.01 1013.03C2006.04 1013.97 2003.13 1015.15 2000.31 1016.57L1930 1050.5L1930 1075Z" fill="#7E7AC2"/>
<path d="M1935 1250L2038 1200.21V1173.79L1935 1124V1147.61L2005.31 1181.04C2008.45 1182.44 2011.43 1183.69 2014.25 1184.78C2017.07 1185.71 2019.19 1186.34 2020.6 1186.65C2019.03 1186.96 2016.84 1187.58 2014.01 1188.52C2011.04 1189.45 2008.13 1190.62 2005.31 1192.03L1935 1225.69V1250Z" fill="#4BA3DF"/>
<path d="M1919 1075L1816 1125.19L1816 1151.81L1919 1202L1919 1178.2L1848.69 1144.51C1845.55 1143.09 1842.57 1141.84 1839.75 1140.74C1836.93 1139.8 1834.81 1139.17 1833.4 1138.85C1834.97 1138.54 1837.16 1137.91 1839.99 1136.97C1842.96 1136.03 1845.87 1134.85 1848.69 1133.43L1919 1099.5L1919 1075Z" fill="#7E7AC2"/>
<path d="M2162 900L2265 949.792V976.208L2162 1026V1002.39L2232.31 968.961C2235.45 967.558 2238.43 966.312 2241.25 965.221C2244.07 964.286 2246.19 963.662 2247.6 963.351C2246.03 963.039 2243.84 962.416 2241.01 961.481C2238.04 960.545 2235.13 959.377 2232.31 957.974L2162 924.312V900Z" fill="#4BA3DF"/>
<path d="M2146 1075L2043 1024.81L2043 998.187L2146 948L2146 971.798L2075.69 1005.49C2072.55 1006.91 2069.57 1008.16 2066.75 1009.26C2063.93 1010.2 2061.81 1010.83 2060.4 1011.15C2061.97 1011.46 2064.16 1012.09 2066.99 1013.03C2069.96 1013.97 2072.87 1015.15 2075.69 1016.57L2146 1050.5L2146 1075Z" fill="#7E7AC2"/>
<path d="M325 1430L222 1380.21V1353.79L325 1304V1327.61L254.687 1361.04C251.552 1362.44 248.573 1363.69 245.751 1364.78C242.929 1365.71 240.813 1366.34 239.402 1366.65C240.97 1366.96 243.164 1367.58 245.986 1368.52C248.965 1369.45 251.865 1370.62 254.687 1372.03L325 1405.69V1430Z" fill="#4BA3DF"/>
<path d="M341 1255L444 1305.19L444 1331.81L341 1382L341 1358.2L411.313 1324.51C414.448 1323.09 417.427 1321.84 420.249 1320.74C423.071 1319.8 425.187 1319.17 426.598 1318.85C425.03 1318.54 422.836 1317.91 420.014 1316.97C417.035 1316.03 414.135 1314.85 411.313 1313.43L341 1279.5L341 1255Z" fill="#7E7AC2"/>
<path d="M552 1080L449 1129.79V1156.21L552 1206V1182.39L481.687 1148.96C478.552 1147.56 475.573 1146.31 472.751 1145.22C469.929 1144.29 467.813 1143.66 466.402 1143.35C467.97 1143.04 470.164 1142.42 472.986 1141.48C475.965 1140.55 478.865 1139.38 481.687 1137.97L552 1104.31V1080Z" fill="#4BA3DF"/>
<path d="M568 1255L671 1204.81L671 1178.19L568 1128L568 1151.8L638.313 1185.49C641.448 1186.91 644.427 1188.16 647.249 1189.26C650.071 1190.2 652.187 1190.83 653.598 1191.15C652.03 1191.46 649.836 1192.09 647.014 1193.03C644.035 1193.97 641.135 1195.15 638.313 1196.57L568 1230.5L568 1255Z" fill="#7E7AC2"/>
<path d="M573 1430L676 1380.21V1353.79L573 1304V1327.61L643.313 1361.04C646.448 1362.44 649.427 1363.69 652.249 1364.78C655.071 1365.71 657.187 1366.34 658.598 1366.65C657.03 1366.96 654.836 1367.58 652.014 1368.52C649.035 1369.45 646.135 1370.62 643.313 1372.03L573 1405.69V1430Z" fill="#4BA3DF"/>
<path d="M557 1255L454 1305.19L454 1331.81L557 1382L557 1358.2L486.687 1324.51C483.552 1323.09 480.573 1321.84 477.751 1320.74C474.929 1319.8 472.813 1319.17 471.402 1318.85C472.97 1318.54 475.164 1317.91 477.986 1316.97C480.965 1316.03 483.865 1314.85 486.687 1313.43L557 1279.5L557 1255Z" fill="#7E7AC2"/>
<path d="M800 1080L903 1129.79V1156.21L800 1206V1182.39L870.313 1148.96C873.448 1147.56 876.427 1146.31 879.249 1145.22C882.071 1144.29 884.187 1143.66 885.598 1143.35C884.03 1143.04 881.836 1142.42 879.014 1141.48C876.035 1140.55 873.135 1139.38 870.313 1137.97L800 1104.31V1080Z" fill="#4BA3DF"/>
<path d="M784 1255L681 1204.81L681 1178.19L784 1128L784 1151.8L713.687 1185.49C710.552 1186.91 707.573 1188.16 704.751 1189.26C701.929 1190.2 699.813 1190.83 698.402 1191.15C699.97 1191.46 702.164 1192.09 704.986 1193.03C707.965 1193.97 710.865 1195.15 713.687 1196.57L784 1230.5L784 1255Z" fill="#7E7AC2"/>
<path d="M1233 1430L1130 1380.21V1353.79L1233 1304V1327.61L1162.69 1361.04C1159.55 1362.44 1156.57 1363.69 1153.75 1364.78C1150.93 1365.71 1148.81 1366.34 1147.4 1366.65C1148.97 1366.96 1151.16 1367.58 1153.99 1368.52C1156.96 1369.45 1159.87 1370.62 1162.69 1372.03L1233 1405.69V1430Z" fill="#4BA3DF"/>
<path d="M1249 1255L1352 1305.19L1352 1331.81L1249 1382L1249 1358.2L1319.31 1324.51C1322.45 1323.09 1325.43 1321.84 1328.25 1320.74C1331.07 1319.8 1333.19 1319.17 1334.6 1318.85C1333.03 1318.54 1330.84 1317.91 1328.01 1316.97C1325.04 1316.03 1322.13 1314.85 1319.31 1313.43L1249 1279.5L1249 1255Z" fill="#7E7AC2"/>
<path d="M1460 1080L1357 1129.79V1156.21L1460 1206V1182.39L1389.69 1148.96C1386.55 1147.56 1383.57 1146.31 1380.75 1145.22C1377.93 1144.29 1375.81 1143.66 1374.4 1143.35C1375.97 1143.04 1378.16 1142.42 1380.99 1141.48C1383.96 1140.55 1386.87 1139.38 1389.69 1137.97L1460 1104.31V1080Z" fill="#4BA3DF"/>
<path d="M1476 1255L1579 1204.81L1579 1178.19L1476 1128L1476 1151.8L1546.31 1185.49C1549.45 1186.91 1552.43 1188.16 1555.25 1189.26C1558.07 1190.2 1560.19 1190.83 1561.6 1191.15C1560.03 1191.46 1557.84 1192.09 1555.01 1193.03C1552.04 1193.97 1549.13 1195.15 1546.31 1196.57L1476 1230.5L1476 1255Z" fill="#7E7AC2"/>
<path d="M1481 1430L1584 1380.21V1353.79L1481 1304V1327.61L1551.31 1361.04C1554.45 1362.44 1557.43 1363.69 1560.25 1364.78C1563.07 1365.71 1565.19 1366.34 1566.6 1366.65C1565.03 1366.96 1562.84 1367.58 1560.01 1368.52C1557.04 1369.45 1554.13 1370.62 1551.31 1372.03L1481 1405.69V1430Z" fill="#4BA3DF"/>
<path d="M1465 1255L1362 1305.19L1362 1331.81L1465 1382L1465 1358.2L1394.69 1324.51C1391.55 1323.09 1388.57 1321.84 1385.75 1320.74C1382.93 1319.8 1380.81 1319.17 1379.4 1318.85C1380.97 1318.54 1383.16 1317.91 1385.99 1316.97C1388.96 1316.03 1391.87 1314.85 1394.69 1313.43L1465 1279.5L1465 1255Z" fill="#7E7AC2"/>
<path d="M1708 1080L1811 1129.79V1156.21L1708 1206V1182.39L1778.31 1148.96C1781.45 1147.56 1784.43 1146.31 1787.25 1145.22C1790.07 1144.29 1792.19 1143.66 1793.6 1143.35C1792.03 1143.04 1789.84 1142.42 1787.01 1141.48C1784.04 1140.55 1781.13 1139.38 1778.31 1137.97L1708 1104.31V1080Z" fill="#4BA3DF"/>
<path d="M1692 1255L1589 1204.81L1589 1178.19L1692 1128L1692 1151.8L1621.69 1185.49C1618.55 1186.91 1615.57 1188.16 1612.75 1189.26C1609.93 1190.2 1607.81 1190.83 1606.4 1191.15C1607.97 1191.46 1610.16 1192.09 1612.99 1193.03C1615.96 1193.97 1618.87 1195.15 1621.69 1196.57L1692 1230.5L1692 1255Z" fill="#7E7AC2"/>
<path d="M2141 1430L2038 1380.21V1353.79L2141 1304V1327.61L2070.69 1361.04C2067.55 1362.44 2064.57 1363.69 2061.75 1364.78C2058.93 1365.71 2056.81 1366.34 2055.4 1366.65C2056.97 1366.96 2059.16 1367.58 2061.99 1368.52C2064.96 1369.45 2067.87 1370.62 2070.69 1372.03L2141 1405.69V1430Z" fill="#4BA3DF"/>
<path d="M2157 1255L2260 1305.19L2260 1331.81L2157 1382L2157 1358.2L2227.31 1324.51C2230.45 1323.09 2233.43 1321.84 2236.25 1320.74C2239.07 1319.8 2241.19 1319.17 2242.6 1318.85C2241.03 1318.54 2238.84 1317.91 2236.01 1316.97C2233.04 1316.03 2230.13 1314.85 2227.31 1313.43L2157 1279.5L2157 1255Z" fill="#7E7AC2"/>
<path d="M2368 1080L2265 1129.79V1156.21L2368 1206V1182.39L2297.69 1148.96C2294.55 1147.56 2291.57 1146.31 2288.75 1145.22C2285.93 1144.29 2283.81 1143.66 2282.4 1143.35C2283.97 1143.04 2286.16 1142.42 2288.99 1141.48C2291.96 1140.55 2294.87 1139.38 2297.69 1137.97L2368 1104.31V1080Z" fill="#4BA3DF"/>
<path d="M2384 1255L2487 1204.81L2487 1178.19L2384 1128L2384 1151.8L2454.31 1185.49C2457.45 1186.91 2460.43 1188.16 2463.25 1189.26C2466.07 1190.2 2468.19 1190.83 2469.6 1191.15C2468.03 1191.46 2465.84 1192.09 2463.01 1193.03C2460.04 1193.97 2457.13 1195.15 2454.31 1196.57L2384 1230.5L2384 1255Z" fill="#7E7AC2"/>
<path d="M119 1610L222 1560.21V1533.79L119 1484V1507.61L189.313 1541.04C192.448 1542.44 195.427 1543.69 198.249 1544.78C201.071 1545.71 203.187 1546.34 204.598 1546.65C203.03 1546.96 200.836 1547.58 198.014 1548.52C195.035 1549.45 192.135 1550.62 189.313 1552.03L119 1585.69V1610Z" fill="#4BA3DF"/>
<path d="M103 1435L-6.71517e-06 1485.19L-4.38752e-06 1511.81L103 1562L103 1538.2L32.6872 1504.51C29.5517 1503.09 26.5731 1501.84 23.7511 1500.74C20.9292 1499.8 18.8128 1499.17 17.4018 1498.85C18.9696 1498.54 21.1644 1497.91 23.9863 1496.97C26.965 1496.03 29.8653 1494.85 32.6872 1493.43L103 1459.5L103 1435Z" fill="#7E7AC2"/>
<path d="M346 1260L449 1309.79V1336.21L346 1386V1362.39L416.313 1328.96C419.448 1327.56 422.427 1326.31 425.249 1325.22C428.071 1324.29 430.187 1323.66 431.598 1323.35C430.03 1323.04 427.836 1322.42 425.014 1321.48C422.035 1320.55 419.135 1319.38 416.313 1317.97L346 1284.31V1260Z" fill="#4BA3DF"/>
<path d="M330 1435L227 1384.81L227 1358.19L330 1308L330 1331.8L259.687 1365.49C256.552 1366.91 253.573 1368.16 250.751 1369.26C247.929 1370.2 245.813 1370.83 244.402 1371.15C245.97 1371.46 248.164 1372.09 250.986 1373.03C253.965 1373.97 256.865 1375.15 259.687 1376.57L330 1410.5L330 1435Z" fill="#7E7AC2"/>
<path d="M779 1610L676 1560.21V1533.79L779 1484V1507.61L708.687 1541.04C705.552 1542.44 702.573 1543.69 699.751 1544.78C696.929 1545.71 694.813 1546.34 693.402 1546.65C694.97 1546.96 697.164 1547.58 699.986 1548.52C702.965 1549.45 705.865 1550.62 708.687 1552.03L779 1585.69V1610Z" fill="#4BA3DF"/>
<path d="M795 1435L898 1485.19L898 1511.81L795 1562L795 1538.2L865.313 1504.51C868.448 1503.09 871.427 1501.84 874.249 1500.74C877.071 1499.8 879.187 1499.17 880.598 1498.85C879.03 1498.54 876.836 1497.91 874.014 1496.97C871.035 1496.03 868.135 1494.85 865.313 1493.43L795 1459.5L795 1435Z" fill="#7E7AC2"/>
<path d="M1006 1260L903 1309.79V1336.21L1006 1386V1362.39L935.687 1328.96C932.552 1327.56 929.573 1326.31 926.751 1325.22C923.929 1324.29 921.813 1323.66 920.402 1323.35C921.97 1323.04 924.164 1322.42 926.986 1321.48C929.965 1320.55 932.865 1319.38 935.687 1317.97L1006 1284.31V1260Z" fill="#4BA3DF"/>
<path d="M1022 1435L1125 1384.81L1125 1358.19L1022 1308L1022 1331.8L1092.31 1365.49C1095.45 1366.91 1098.43 1368.16 1101.25 1369.26C1104.07 1370.2 1106.19 1370.83 1107.6 1371.15C1106.03 1371.46 1103.84 1372.09 1101.01 1373.03C1098.04 1373.97 1095.13 1375.15 1092.31 1376.57L1022 1410.5L1022 1435Z" fill="#7E7AC2"/>
<path d="M1027 1610L1130 1560.21V1533.79L1027 1484V1507.61L1097.31 1541.04C1100.45 1542.44 1103.43 1543.69 1106.25 1544.78C1109.07 1545.71 1111.19 1546.34 1112.6 1546.65C1111.03 1546.96 1108.84 1547.58 1106.01 1548.52C1103.04 1549.45 1100.13 1550.62 1097.31 1552.03L1027 1585.69V1610Z" fill="#4BA3DF"/>
<path d="M1011 1435L908 1485.19L908 1511.81L1011 1562L1011 1538.2L940.687 1504.51C937.552 1503.09 934.573 1501.84 931.751 1500.74C928.929 1499.8 926.813 1499.17 925.402 1498.85C926.97 1498.54 929.164 1497.91 931.986 1496.97C934.965 1496.03 937.865 1494.85 940.687 1493.43L1011 1459.5L1011 1435Z" fill="#7E7AC2"/>
<path d="M1254 1260L1357 1309.79V1336.21L1254 1386V1362.39L1324.31 1328.96C1327.45 1327.56 1330.43 1326.31 1333.25 1325.22C1336.07 1324.29 1338.19 1323.66 1339.6 1323.35C1338.03 1323.04 1335.84 1322.42 1333.01 1321.48C1330.04 1320.55 1327.13 1319.38 1324.31 1317.97L1254 1284.31V1260Z" fill="#4BA3DF"/>
<path d="M1238 1435L1135 1384.81L1135 1358.19L1238 1308L1238 1331.8L1167.69 1365.49C1164.55 1366.91 1161.57 1368.16 1158.75 1369.26C1155.93 1370.2 1153.81 1370.83 1152.4 1371.15C1153.97 1371.46 1156.16 1372.09 1158.99 1373.03C1161.96 1373.97 1164.87 1375.15 1167.69 1376.57L1238 1410.5L1238 1435Z" fill="#7E7AC2"/>
<path d="M1687 1610L1584 1560.21V1533.79L1687 1484V1507.61L1616.69 1541.04C1613.55 1542.44 1610.57 1543.69 1607.75 1544.78C1604.93 1545.71 1602.81 1546.34 1601.4 1546.65C1602.97 1546.96 1605.16 1547.58 1607.99 1548.52C1610.96 1549.45 1613.87 1550.62 1616.69 1552.03L1687 1585.69V1610Z" fill="#4BA3DF"/>
<path d="M1703 1435L1806 1485.19L1806 1511.81L1703 1562L1703 1538.2L1773.31 1504.51C1776.45 1503.09 1779.43 1501.84 1782.25 1500.74C1785.07 1499.8 1787.19 1499.17 1788.6 1498.85C1787.03 1498.54 1784.84 1497.91 1782.01 1496.97C1779.04 1496.03 1776.13 1494.85 1773.31 1493.43L1703 1459.5L1703 1435Z" fill="#7E7AC2"/>
<path d="M1914 1260L1811 1309.79V1336.21L1914 1386V1362.39L1843.69 1328.96C1840.55 1327.56 1837.57 1326.31 1834.75 1325.22C1831.93 1324.29 1829.81 1323.66 1828.4 1323.35C1829.97 1323.04 1832.16 1322.42 1834.99 1321.48C1837.96 1320.55 1840.87 1319.38 1843.69 1317.97L1914 1284.31V1260Z" fill="#4BA3DF"/>
<path d="M1930 1435L2033 1384.81L2033 1358.19L1930 1308L1930 1331.8L2000.31 1365.49C2003.45 1366.91 2006.43 1368.16 2009.25 1369.26C2012.07 1370.2 2014.19 1370.83 2015.6 1371.15C2014.03 1371.46 2011.84 1372.09 2009.01 1373.03C2006.04 1373.97 2003.13 1375.15 2000.31 1376.57L1930 1410.5L1930 1435Z" fill="#7E7AC2"/>
<path d="M1935 1610L2038 1560.21V1533.79L1935 1484V1507.61L2005.31 1541.04C2008.45 1542.44 2011.43 1543.69 2014.25 1544.78C2017.07 1545.71 2019.19 1546.34 2020.6 1546.65C2019.03 1546.96 2016.84 1547.58 2014.01 1548.52C2011.04 1549.45 2008.13 1550.62 2005.31 1552.03L1935 1585.69V1610Z" fill="#4BA3DF"/>
<path d="M1919 1435L1816 1485.19L1816 1511.81L1919 1562L1919 1538.2L1848.69 1504.51C1845.55 1503.09 1842.57 1501.84 1839.75 1500.74C1836.93 1499.8 1834.81 1499.17 1833.4 1498.85C1834.97 1498.54 1837.16 1497.91 1839.99 1496.97C1842.96 1496.03 1845.87 1494.85 1848.69 1493.43L1919 1459.5L1919 1435Z" fill="#7E7AC2"/>
<path d="M2162 1260L2265 1309.79V1336.21L2162 1386V1362.39L2232.31 1328.96C2235.45 1327.56 2238.43 1326.31 2241.25 1325.22C2244.07 1324.29 2246.19 1323.66 2247.6 1323.35C2246.03 1323.04 2243.84 1322.42 2241.01 1321.48C2238.04 1320.55 2235.13 1319.38 2232.31 1317.97L2162 1284.31V1260Z" fill="#4BA3DF"/>
<path d="M2146 1435L2043 1384.81L2043 1358.19L2146 1308L2146 1331.8L2075.69 1365.49C2072.55 1366.91 2069.57 1368.16 2066.75 1369.26C2063.93 1370.2 2061.81 1370.83 2060.4 1371.15C2061.97 1371.46 2064.16 1372.09 2066.99 1373.03C2069.96 1373.97 2072.87 1375.15 2075.69 1376.57L2146 1410.5L2146 1435Z" fill="#7E7AC2"/>
<path d="M325 1790L222 1740.21V1713.79L325 1664V1687.61L254.687 1721.04C251.552 1722.44 248.573 1723.69 245.751 1724.78C242.929 1725.71 240.813 1726.34 239.402 1726.65C240.97 1726.96 243.164 1727.58 245.986 1728.52C248.965 1729.45 251.865 1730.62 254.687 1732.03L325 1765.69V1790Z" fill="#4BA3DF"/>
<path d="M341 1615L444 1665.19L444 1691.81L341 1742L341 1718.2L411.313 1684.51C414.448 1683.09 417.427 1681.84 420.249 1680.74C423.071 1679.8 425.187 1679.17 426.598 1678.85C425.03 1678.54 422.836 1677.91 420.014 1676.97C417.035 1676.03 414.135 1674.85 411.313 1673.43L341 1639.5L341 1615Z" fill="#7E7AC2"/>
<path d="M552 1440L449 1489.79V1516.21L552 1566V1542.39L481.687 1508.96C478.552 1507.56 475.573 1506.31 472.751 1505.22C469.929 1504.29 467.813 1503.66 466.402 1503.35C467.97 1503.04 470.164 1502.42 472.986 1501.48C475.965 1500.55 478.865 1499.38 481.687 1497.97L552 1464.31V1440Z" fill="#4BA3DF"/>
<path d="M568 1615L671 1564.81L671 1538.19L568 1488L568 1511.8L638.313 1545.49C641.448 1546.91 644.427 1548.16 647.249 1549.26C650.071 1550.2 652.187 1550.83 653.598 1551.15C652.03 1551.46 649.836 1552.09 647.014 1553.03C644.035 1553.97 641.135 1555.15 638.313 1556.57L568 1590.5L568 1615Z" fill="#7E7AC2"/>
<path d="M573 1790L676 1740.21V1713.79L573 1664V1687.61L643.313 1721.04C646.448 1722.44 649.427 1723.69 652.249 1724.78C655.071 1725.71 657.187 1726.34 658.598 1726.65C657.03 1726.96 654.836 1727.58 652.014 1728.52C649.035 1729.45 646.135 1730.62 643.313 1732.03L573 1765.69V1790Z" fill="#4BA3DF"/>
<path d="M557 1615L454 1665.19L454 1691.81L557 1742L557 1718.2L486.687 1684.51C483.552 1683.09 480.573 1681.84 477.751 1680.74C474.929 1679.8 472.813 1679.17 471.402 1678.85C472.97 1678.54 475.164 1677.91 477.986 1676.97C480.965 1676.03 483.865 1674.85 486.687 1673.43L557 1639.5L557 1615Z" fill="#7E7AC2"/>
<path d="M800 1440L903 1489.79V1516.21L800 1566V1542.39L870.313 1508.96C873.448 1507.56 876.427 1506.31 879.249 1505.22C882.071 1504.29 884.187 1503.66 885.598 1503.35C884.03 1503.04 881.836 1502.42 879.014 1501.48C876.035 1500.55 873.135 1499.38 870.313 1497.97L800 1464.31V1440Z" fill="#4BA3DF"/>
<path d="M784 1615L681 1564.81L681 1538.19L784 1488L784 1511.8L713.687 1545.49C710.552 1546.91 707.573 1548.16 704.751 1549.26C701.929 1550.2 699.813 1550.83 698.402 1551.15C699.97 1551.46 702.164 1552.09 704.986 1553.03C707.965 1553.97 710.865 1555.15 713.687 1556.57L784 1590.5L784 1615Z" fill="#7E7AC2"/>
<path d="M1233 1790L1130 1740.21V1713.79L1233 1664V1687.61L1162.69 1721.04C1159.55 1722.44 1156.57 1723.69 1153.75 1724.78C1150.93 1725.71 1148.81 1726.34 1147.4 1726.65C1148.97 1726.96 1151.16 1727.58 1153.99 1728.52C1156.96 1729.45 1159.87 1730.62 1162.69 1732.03L1233 1765.69V1790Z" fill="#4BA3DF"/>
<path d="M1249 1615L1352 1665.19L1352 1691.81L1249 1742L1249 1718.2L1319.31 1684.51C1322.45 1683.09 1325.43 1681.84 1328.25 1680.74C1331.07 1679.8 1333.19 1679.17 1334.6 1678.85C1333.03 1678.54 1330.84 1677.91 1328.01 1676.97C1325.04 1676.03 1322.13 1674.85 1319.31 1673.43L1249 1639.5L1249 1615Z" fill="#7E7AC2"/>
<path d="M1460 1440L1357 1489.79V1516.21L1460 1566V1542.39L1389.69 1508.96C1386.55 1507.56 1383.57 1506.31 1380.75 1505.22C1377.93 1504.29 1375.81 1503.66 1374.4 1503.35C1375.97 1503.04 1378.16 1502.42 1380.99 1501.48C1383.96 1500.55 1386.87 1499.38 1389.69 1497.97L1460 1464.31V1440Z" fill="#4BA3DF"/>
<path d="M1476 1615L1579 1564.81L1579 1538.19L1476 1488L1476 1511.8L1546.31 1545.49C1549.45 1546.91 1552.43 1548.16 1555.25 1549.26C1558.07 1550.2 1560.19 1550.83 1561.6 1551.15C1560.03 1551.46 1557.84 1552.09 1555.01 1553.03C1552.04 1553.97 1549.13 1555.15 1546.31 1556.57L1476 1590.5L1476 1615Z" fill="#7E7AC2"/>
<path d="M1481 1790L1584 1740.21V1713.79L1481 1664V1687.61L1551.31 1721.04C1554.45 1722.44 1557.43 1723.69 1560.25 1724.78C1563.07 1725.71 1565.19 1726.34 1566.6 1726.65C1565.03 1726.96 1562.84 1727.58 1560.01 1728.52C1557.04 1729.45 1554.13 1730.62 1551.31 1732.03L1481 1765.69V1790Z" fill="#4BA3DF"/>
<path d="M1465 1615L1362 1665.19L1362 1691.81L1465 1742L1465 1718.2L1394.69 1684.51C1391.55 1683.09 1388.57 1681.84 1385.75 1680.74C1382.93 1679.8 1380.81 1679.17 1379.4 1678.85C1380.97 1678.54 1383.16 1677.91 1385.99 1676.97C1388.96 1676.03 1391.87 1674.85 1394.69 1673.43L1465 1639.5L1465 1615Z" fill="#7E7AC2"/>
<path d="M1708 1440L1811 1489.79V1516.21L1708 1566V1542.39L1778.31 1508.96C1781.45 1507.56 1784.43 1506.31 1787.25 1505.22C1790.07 1504.29 1792.19 1503.66 1793.6 1503.35C1792.03 1503.04 1789.84 1502.42 1787.01 1501.48C1784.04 1500.55 1781.13 1499.38 1778.31 1497.97L1708 1464.31V1440Z" fill="#4BA3DF"/>
<path d="M1692 1615L1589 1564.81L1589 1538.19L1692 1488L1692 1511.8L1621.69 1545.49C1618.55 1546.91 1615.57 1548.16 1612.75 1549.26C1609.93 1550.2 1607.81 1550.83 1606.4 1551.15C1607.97 1551.46 1610.16 1552.09 1612.99 1553.03C1615.96 1553.97 1618.87 1555.15 1621.69 1556.57L1692 1590.5L1692 1615Z" fill="#7E7AC2"/>
<path d="M2141 1790L2038 1740.21V1713.79L2141 1664V1687.61L2070.69 1721.04C2067.55 1722.44 2064.57 1723.69 2061.75 1724.78C2058.93 1725.71 2056.81 1726.34 2055.4 1726.65C2056.97 1726.96 2059.16 1727.58 2061.99 1728.52C2064.96 1729.45 2067.87 1730.62 2070.69 1732.03L2141 1765.69V1790Z" fill="#4BA3DF"/>
<path d="M2157 1615L2260 1665.19L2260 1691.81L2157 1742L2157 1718.2L2227.31 1684.51C2230.45 1683.09 2233.43 1681.84 2236.25 1680.74C2239.07 1679.8 2241.19 1679.17 2242.6 1678.85C2241.03 1678.54 2238.84 1677.91 2236.01 1676.97C2233.04 1676.03 2230.13 1674.85 2227.31 1673.43L2157 1639.5L2157 1615Z" fill="#7E7AC2"/>
<path d="M2368 1440L2265 1489.79V1516.21L2368 1566V1542.39L2297.69 1508.96C2294.55 1507.56 2291.57 1506.31 2288.75 1505.22C2285.93 1504.29 2283.81 1503.66 2282.4 1503.35C2283.97 1503.04 2286.16 1502.42 2288.99 1501.48C2291.96 1500.55 2294.87 1499.38 2297.69 1497.97L2368 1464.31V1440Z" fill="#4BA3DF"/>
<path d="M2384 1615L2487 1564.81L2487 1538.19L2384 1488L2384 1511.8L2454.31 1545.49C2457.45 1546.91 2460.43 1548.16 2463.25 1549.26C2466.07 1550.2 2468.19 1550.83 2469.6 1551.15C2468.03 1551.46 2465.84 1552.09 2463.01 1553.03C2460.04 1553.97 2457.13 1555.15 2454.31 1556.57L2384 1590.5L2384 1615Z" fill="#7E7AC2"/>
<path d="M119 1970L222 1920.21V1893.79L119 1844V1867.61L189.313 1901.04C192.448 1902.44 195.427 1903.69 198.249 1904.78C201.071 1905.71 203.187 1906.34 204.598 1906.65C203.03 1906.96 200.836 1907.58 198.014 1908.52C195.035 1909.45 192.135 1910.62 189.313 1912.03L119 1945.69V1970Z" fill="#4BA3DF"/>
<path d="M103 1795L-6.71517e-06 1845.19L-4.38752e-06 1871.81L103 1922L103 1898.2L32.6872 1864.51C29.5517 1863.09 26.5731 1861.84 23.7511 1860.74C20.9292 1859.8 18.8128 1859.17 17.4018 1858.85C18.9696 1858.54 21.1644 1857.91 23.9863 1856.97C26.965 1856.03 29.8653 1854.85 32.6872 1853.43L103 1819.5L103 1795Z" fill="#7E7AC2"/>
<path d="M346 1620L449 1669.79V1696.21L346 1746V1722.39L416.313 1688.96C419.448 1687.56 422.427 1686.31 425.249 1685.22C428.071 1684.29 430.187 1683.66 431.598 1683.35C430.03 1683.04 427.836 1682.42 425.014 1681.48C422.035 1680.55 419.135 1679.38 416.313 1677.97L346 1644.31V1620Z" fill="#4BA3DF"/>
<path d="M330 1795L227 1744.81L227 1718.19L330 1668L330 1691.8L259.687 1725.49C256.552 1726.91 253.573 1728.16 250.751 1729.26C247.929 1730.2 245.813 1730.83 244.402 1731.15C245.97 1731.46 248.164 1732.09 250.986 1733.03C253.965 1733.97 256.865 1735.15 259.687 1736.57L330 1770.5L330 1795Z" fill="#7E7AC2"/>
<path d="M779 1970L676 1920.21V1893.79L779 1844V1867.61L708.687 1901.04C705.552 1902.44 702.573 1903.69 699.751 1904.78C696.929 1905.71 694.813 1906.34 693.402 1906.65C694.97 1906.96 697.164 1907.58 699.986 1908.52C702.965 1909.45 705.865 1910.62 708.687 1912.03L779 1945.69V1970Z" fill="#4BA3DF"/>
<path d="M795 1795L898 1845.19L898 1871.81L795 1922L795 1898.2L865.313 1864.51C868.448 1863.09 871.427 1861.84 874.249 1860.74C877.071 1859.8 879.187 1859.17 880.598 1858.85C879.03 1858.54 876.836 1857.91 874.014 1856.97C871.035 1856.03 868.135 1854.85 865.313 1853.43L795 1819.5L795 1795Z" fill="#7E7AC2"/>
<path d="M1006 1620L903 1669.79V1696.21L1006 1746V1722.39L935.687 1688.96C932.552 1687.56 929.573 1686.31 926.751 1685.22C923.929 1684.29 921.813 1683.66 920.402 1683.35C921.97 1683.04 924.164 1682.42 926.986 1681.48C929.965 1680.55 932.865 1679.38 935.687 1677.97L1006 1644.31V1620Z" fill="#4BA3DF"/>
<path d="M1022 1795L1125 1744.81L1125 1718.19L1022 1668L1022 1691.8L1092.31 1725.49C1095.45 1726.91 1098.43 1728.16 1101.25 1729.26C1104.07 1730.2 1106.19 1730.83 1107.6 1731.15C1106.03 1731.46 1103.84 1732.09 1101.01 1733.03C1098.04 1733.97 1095.13 1735.15 1092.31 1736.57L1022 1770.5L1022 1795Z" fill="#7E7AC2"/>
<path d="M1027 1970L1130 1920.21V1893.79L1027 1844V1867.61L1097.31 1901.04C1100.45 1902.44 1103.43 1903.69 1106.25 1904.78C1109.07 1905.71 1111.19 1906.34 1112.6 1906.65C1111.03 1906.96 1108.84 1907.58 1106.01 1908.52C1103.04 1909.45 1100.13 1910.62 1097.31 1912.03L1027 1945.69V1970Z" fill="#4BA3DF"/>
<path d="M1011 1795L908 1845.19L908 1871.81L1011 1922L1011 1898.2L940.687 1864.51C937.552 1863.09 934.573 1861.84 931.751 1860.74C928.929 1859.8 926.813 1859.17 925.402 1858.85C926.97 1858.54 929.164 1857.91 931.986 1856.97C934.965 1856.03 937.865 1854.85 940.687 1853.43L1011 1819.5L1011 1795Z" fill="#7E7AC2"/>
<path d="M1254 1620L1357 1669.79V1696.21L1254 1746V1722.39L1324.31 1688.96C1327.45 1687.56 1330.43 1686.31 1333.25 1685.22C1336.07 1684.29 1338.19 1683.66 1339.6 1683.35C1338.03 1683.04 1335.84 1682.42 1333.01 1681.48C1330.04 1680.55 1327.13 1679.38 1324.31 1677.97L1254 1644.31V1620Z" fill="#4BA3DF"/>
<path d="M1238 1795L1135 1744.81L1135 1718.19L1238 1668L1238 1691.8L1167.69 1725.49C1164.55 1726.91 1161.57 1728.16 1158.75 1729.26C1155.93 1730.2 1153.81 1730.83 1152.4 1731.15C1153.97 1731.46 1156.16 1732.09 1158.99 1733.03C1161.96 1733.97 1164.87 1735.15 1167.69 1736.57L1238 1770.5L1238 1795Z" fill="#7E7AC2"/>
<path d="M1687 1970L1584 1920.21V1893.79L1687 1844V1867.61L1616.69 1901.04C1613.55 1902.44 1610.57 1903.69 1607.75 1904.78C1604.93 1905.71 1602.81 1906.34 1601.4 1906.65C1602.97 1906.96 1605.16 1907.58 1607.99 1908.52C1610.96 1909.45 1613.87 1910.62 1616.69 1912.03L1687 1945.69V1970Z" fill="#4BA3DF"/>
<path d="M1703 1795L1806 1845.19L1806 1871.81L1703 1922L1703 1898.2L1773.31 1864.51C1776.45 1863.09 1779.43 1861.84 1782.25 1860.74C1785.07 1859.8 1787.19 1859.17 1788.6 1858.85C1787.03 1858.54 1784.84 1857.91 1782.01 1856.97C1779.04 1856.03 1776.13 1854.85 1773.31 1853.43L1703 1819.5L1703 1795Z" fill="#7E7AC2"/>
<path d="M1914 1620L1811 1669.79V1696.21L1914 1746V1722.39L1843.69 1688.96C1840.55 1687.56 1837.57 1686.31 1834.75 1685.22C1831.93 1684.29 1829.81 1683.66 1828.4 1683.35C1829.97 1683.04 1832.16 1682.42 1834.99 1681.48C1837.96 1680.55 1840.87 1679.38 1843.69 1677.97L1914 1644.31V1620Z" fill="#4BA3DF"/>
<path d="M1930 1795L2033 1744.81L2033 1718.19L1930 1668L1930 1691.8L2000.31 1725.49C2003.45 1726.91 2006.43 1728.16 2009.25 1729.26C2012.07 1730.2 2014.19 1730.83 2015.6 1731.15C2014.03 1731.46 2011.84 1732.09 2009.01 1733.03C2006.04 1733.97 2003.13 1735.15 2000.31 1736.57L1930 1770.5L1930 1795Z" fill="#7E7AC2"/>
<path d="M1935 1970L2038 1920.21V1893.79L1935 1844V1867.61L2005.31 1901.04C2008.45 1902.44 2011.43 1903.69 2014.25 1904.78C2017.07 1905.71 2019.19 1906.34 2020.6 1906.65C2019.03 1906.96 2016.84 1907.58 2014.01 1908.52C2011.04 1909.45 2008.13 1910.62 2005.31 1912.03L1935 1945.69V1970Z" fill="#4BA3DF"/>
<path d="M1919 1795L1816 1845.19L1816 1871.81L1919 1922L1919 1898.2L1848.69 1864.51C1845.55 1863.09 1842.57 1861.84 1839.75 1860.74C1836.93 1859.8 1834.81 1859.17 1833.4 1858.85C1834.97 1858.54 1837.16 1857.91 1839.99 1856.97C1842.96 1856.03 1845.87 1854.85 1848.69 1853.43L1919 1819.5L1919 1795Z" fill="#7E7AC2"/>
<path d="M2162 1620L2265 1669.79V1696.21L2162 1746V1722.39L2232.31 1688.96C2235.45 1687.56 2238.43 1686.31 2241.25 1685.22C2244.07 1684.29 2246.19 1683.66 2247.6 1683.35C2246.03 1683.04 2243.84 1682.42 2241.01 1681.48C2238.04 1680.55 2235.13 1679.38 2232.31 1677.97L2162 1644.31V1620Z" fill="#4BA3DF"/>
<path d="M2146 1795L2043 1744.81L2043 1718.19L2146 1668L2146 1691.8L2075.69 1725.49C2072.55 1726.91 2069.57 1728.16 2066.75 1729.26C2063.93 1730.2 2061.81 1730.83 2060.4 1731.15C2061.97 1731.46 2064.16 1732.09 2066.99 1733.03C2069.96 1733.97 2072.87 1735.15 2075.69 1736.57L2146 1770.5L2146 1795Z" fill="#7E7AC2"/>
</svg>
