<svg width="90" height="80" viewBox="0 0 90 80" fill="none" xmlns="http://www.w3.org/2000/svg">
<rect width="90" height="80" rx="7" fill="#FF2938"/>
<rect width="80" height="80" transform="translate(10)" fill="#FFEBE3"/>
<path d="M74.0375 37.7726L51.7704 15.9427C51.1546 15.3391 50.3194 15 49.4487 15C48.5779 15 47.7427 15.3391 47.1269 15.9427L42.503 20.476L48.3671 26.2262C49.0566 25.9963 49.7981 25.9604 50.5074 26.1226C51.2167 26.2847 51.8655 26.6384 52.3802 27.1436C52.898 27.6517 53.2596 28.2923 53.4235 28.9924C53.5874 29.6924 53.5471 30.4235 53.3071 31.1021L58.9598 36.6441C59.7953 36.3586 60.7048 36.36 61.5394 36.6478C62.374 36.9356 63.0842 37.4928 63.5534 38.2281C64.0227 38.9634 64.2232 39.8332 64.1222 40.695C64.0212 41.5567 63.6246 42.3592 62.9974 42.971C62.359 43.5981 61.5185 43.9889 60.6191 44.0768C59.7197 44.1646 58.8171 43.9441 58.065 43.4527C57.3129 42.9613 56.7578 42.2295 56.4942 41.3819C56.2306 40.5344 56.2749 39.6234 56.6195 38.8042L51.3476 33.6356L51.3466 47.2375C51.903 47.507 52.386 47.9025 52.7556 48.3914C53.1251 48.8803 53.3705 49.4484 53.4716 50.0488C53.5726 50.6491 53.5263 51.2644 53.3365 51.8438C53.1467 52.4231 52.8189 52.9498 52.3802 53.3802C51.9711 53.7811 51.4764 54.088 50.9317 54.2788C50.3869 54.4695 49.8058 54.5393 49.2303 54.4832C48.6547 54.4271 48.099 54.2464 47.6032 53.9542C47.1075 53.662 46.6841 53.2656 46.3636 52.7936C46.0431 52.3215 45.8334 51.7856 45.7497 51.2244C45.6661 50.6633 45.7105 50.091 45.8798 49.5487C46.049 49.0065 46.339 48.5078 46.7287 48.0887C47.1183 47.6696 47.598 47.3406 48.1331 47.1253V33.3976C47.6559 33.206 47.2222 32.9236 46.8568 32.5667C46.4915 32.2099 46.2019 31.7857 46.0047 31.3185C45.8075 30.8514 45.7066 30.3506 45.7079 29.845C45.7092 29.3394 45.8125 28.8391 46.012 28.3729L40.2311 22.7033L24.9626 37.6718C24.6574 37.9709 24.4153 38.326 24.2502 38.7168C24.085 39.1076 24 39.5265 24 39.9495C24 40.3726 24.085 40.7915 24.2502 41.1823C24.4153 41.5731 24.6574 41.9282 24.9626 42.2272L47.2297 64.0572C47.8458 64.6609 48.6813 65 49.5524 65C50.4235 65 51.259 64.6609 51.8751 64.0572L74.0375 42.327C74.3426 42.0281 74.5847 41.6731 74.7499 41.2823C74.915 40.8916 75 40.4728 75 40.0498C75 39.6269 74.915 39.2081 74.7499 38.8173C74.5847 38.4266 74.3426 38.0716 74.0375 37.7726Z" fill="#F34F29"/>
</svg>
