<svg width="90" height="80" viewBox="0 0 90 80" fill="none" xmlns="http://www.w3.org/2000/svg">
<rect width="90" height="80" rx="7" fill="#FFBF1E"/>
<rect width="80" height="80" transform="translate(10)" fill="#FFF4CC"/>
<path d="M31.4072 21.418H67.5932V58.5823H31.4072V21.418Z" fill="#FFBF1E"/>
<path d="M64.6318 49.7187C64.3667 48.0232 63.2903 46.5991 60.1016 45.2712C58.9939 44.7484 57.759 44.3741 57.3911 43.5119C57.2604 43.0102 57.2431 42.7276 57.3257 42.4239C57.5631 41.4383 58.7086 41.131 59.6166 41.4136C60.2013 41.6149 60.7549 42.0777 61.0888 42.8161C62.6503 41.7776 62.6471 41.7844 63.7374 41.0707C63.3382 40.4351 63.1252 40.1418 62.8639 39.8699C61.9247 38.7925 60.645 38.2376 58.5985 38.2801L57.5324 38.4217C56.5109 38.6868 55.5373 39.2375 54.9664 39.9758C53.2534 41.972 53.7419 45.4657 55.8264 46.9034C57.8799 48.4864 60.8965 48.8465 61.2818 50.3267C61.6568 52.1388 59.9851 52.7254 58.3236 52.517C57.0991 52.2555 56.4181 51.6163 55.6818 50.4541C54.3267 51.2595 54.3267 51.2595 52.9334 52.0824C53.2638 52.8243 53.611 53.1601 54.1648 53.8028C56.7861 56.5335 63.3455 56.3993 64.5219 52.2662C64.5696 52.1243 64.8865 51.1778 64.6318 49.7187V49.7187ZM51.0791 38.4989H47.6945L47.6806 47.4859C47.6806 49.3972 47.7768 51.1493 47.4742 51.6864C46.979 52.7427 45.6959 52.6117 45.1111 52.4069C44.5159 52.1065 44.2133 51.6793 43.8626 51.0754C43.7664 50.902 43.6941 50.7678 43.6698 50.7575L40.918 52.4882C41.3756 53.4528 42.0496 54.29 42.9131 54.8338C44.2029 55.6289 45.9364 55.8726 47.7494 55.4451C48.9293 55.0921 49.9474 54.3609 50.4804 53.2479C51.2511 51.7888 51.0857 50.0227 51.0788 48.0693C51.0961 44.8823 51.0791 41.6959 51.0791 38.4989V38.4989Z" fill="#323330"/>
</svg>
