<svg width="90" height="80" viewBox="0 0 90 80" fill="none" xmlns="http://www.w3.org/2000/svg">
<rect width="90" height="80" rx="7" fill="#17A0EA"/>
<rect width="80" height="80" transform="translate(10)" fill="#E2FAFF"/>
<path d="M49.6807 44.5352C52.1633 44.5352 54.1758 42.5226 54.1758 40.0401C54.1758 37.5575 52.1633 35.5449 49.6807 35.5449C47.1981 35.5449 45.1855 37.5575 45.1855 40.0401C45.1855 42.5226 47.1981 44.5352 49.6807 44.5352Z" fill="#17A0EA"/>
<path d="M66.7574 32.6289C65.8899 32.3134 64.983 31.998 64.0367 31.722C64.2733 30.7756 64.4704 29.8293 64.6281 28.9224C65.4562 23.7175 64.5493 20.0504 62.0257 18.6309C61.2765 18.1972 60.4484 18 59.5021 18C56.7419 18 53.2326 20.0504 49.6838 23.4809C46.135 20.0504 42.6256 18 39.8655 18C38.9191 18 38.0911 18.1972 37.3419 18.6309C34.8183 20.0898 33.9114 23.7569 34.7395 28.9224C34.8972 29.8293 35.0943 30.7756 35.3309 31.722C34.3846 31.998 33.4777 32.274 32.6102 32.6289C27.6813 34.5216 25 37.124 25 40.0419C25 42.9598 27.7207 45.5623 32.6102 47.4549C33.4777 47.7704 34.3846 48.0858 35.3309 48.3619C35.0943 49.3082 34.8972 50.2545 34.7395 51.1615C33.9114 56.3663 34.8183 60.0334 37.3419 61.4529C38.0911 61.8867 38.9191 62.0838 39.8655 62.0838C42.6651 62.0838 46.1744 60.0334 49.6838 56.6029C53.2326 60.0334 56.7419 62.0838 59.5021 62.0838C60.4484 62.0838 61.2765 61.8867 62.0257 61.4529C64.5493 59.994 65.4562 56.3269 64.6281 51.1615C64.4704 50.2545 64.2733 49.3082 64.0367 48.3619C64.983 48.0858 65.8899 47.8098 66.7574 47.4549C71.6863 45.5623 74.3676 42.9598 74.3676 40.0419C74.3676 37.124 71.6863 34.5216 66.7574 32.6289ZM60.9216 20.6024C62.5383 21.5488 63.0903 24.4667 62.42 28.6069C62.3017 29.435 62.1045 30.3025 61.868 31.2094C59.8176 30.7362 57.6488 30.4208 55.3619 30.2236C54.0212 28.3309 52.6411 26.6354 51.261 25.0976C54.1789 22.2191 57.1362 20.2476 59.5415 20.2476C60.0541 20.2476 60.5273 20.3659 60.9216 20.6024ZM56.5054 43.985C55.7956 45.2468 54.9675 46.5086 54.1001 47.7704C52.6411 47.8887 51.1822 47.9281 49.6838 47.9281C48.146 47.9281 46.687 47.8887 45.2675 47.7704C44.4 46.5086 43.6114 45.2468 42.9017 43.985C42.1525 42.6838 41.4427 41.3431 40.8118 40.0419C41.4427 38.7407 42.1525 37.4 42.9017 36.0988C43.6114 34.837 44.4395 33.5752 45.307 32.3134C46.7659 32.1952 48.2248 32.1557 49.7232 32.1557C51.261 32.1557 52.72 32.1952 54.1395 32.3134C55.007 33.5752 55.7956 34.837 56.5054 36.0988C57.2545 37.4 57.9643 38.7407 58.5952 40.0419C57.9249 41.3431 57.2545 42.6444 56.5054 43.985ZM59.7781 42.6838C60.3696 44.0639 60.8428 45.4045 61.2765 46.7452C59.9358 47.0606 58.5163 47.2972 57.018 47.4944C57.4911 46.7452 58.0037 45.9566 58.4375 45.1285C58.9106 44.3005 59.3444 43.4724 59.7781 42.6838ZM49.6838 53.3696C48.7374 52.3444 47.8305 51.2403 46.9631 50.0968C47.87 50.1362 48.7769 50.1757 49.6838 50.1757C50.5907 50.1757 51.4976 50.1362 52.4045 50.0968C51.537 51.2403 50.6301 52.3444 49.6838 53.3696ZM42.3496 47.4549C40.8513 47.2578 39.4317 47.0212 38.0911 46.7058C38.5248 45.4045 38.998 44.0244 39.5895 42.6444C40.0232 43.433 40.4569 44.261 40.9301 45.0497C41.4033 45.9171 41.8765 46.6663 42.3496 47.4549ZM39.5895 37.4C38.998 36.02 38.5248 34.6793 38.0911 33.3387C39.4317 33.0232 40.8513 32.7866 42.3496 32.5895C41.8765 33.3387 41.3639 34.1273 40.9301 34.9553C40.4569 35.7834 40.0232 36.6114 39.5895 37.4ZM49.6838 26.7142C50.6301 27.7395 51.537 28.8435 52.4045 29.987C51.4976 29.9476 50.5907 29.9082 49.6838 29.9082C48.7769 29.9082 47.87 29.9476 46.9631 29.987C47.8305 28.8435 48.7374 27.7395 49.6838 26.7142ZM58.4375 34.9948L57.018 32.6289C58.5163 32.826 59.9358 33.0626 61.2765 33.3781C60.8428 34.6793 60.3696 36.0594 59.7781 37.4395C59.3444 36.6114 58.9106 35.7834 58.4375 34.9948ZM36.9476 28.6069C36.2773 24.4667 36.8293 21.5488 38.446 20.6024C38.8403 20.3659 39.3134 20.2476 39.826 20.2476C42.1919 20.2476 45.1492 22.1797 48.1066 25.0976C46.7265 26.596 45.3464 28.3309 44.0057 30.2236C41.7187 30.4208 39.55 30.7756 37.4996 31.2094C37.263 30.3025 37.1053 29.435 36.9476 28.6069ZM27.2081 40.0419C27.2081 38.1887 29.4557 36.2171 33.3988 34.7582C34.1874 34.4427 35.0549 34.1667 35.9224 33.9301C36.5533 35.9017 37.3419 37.9915 38.2882 40.0814C37.3419 42.1712 36.5138 44.2216 35.9224 46.1932C30.4809 44.6159 27.2081 42.2501 27.2081 40.0419ZM38.446 59.4814C36.8293 58.535 36.2773 55.6172 36.9476 51.4769C37.0659 50.6489 37.263 49.7814 37.4996 48.8745C39.55 49.3476 41.7187 49.6631 44.0057 49.8602C45.3464 51.7529 46.7265 53.4485 48.1066 54.9863C45.1887 57.8647 42.2313 59.8363 39.826 59.8363C39.3134 59.8363 38.8403 59.718 38.446 59.4814ZM62.42 51.4769C63.0903 55.6172 62.5383 58.535 60.9216 59.4814C60.5273 59.718 60.0541 59.8363 59.5415 59.8363C57.1757 59.8363 54.2184 57.9042 51.261 54.9863C52.6411 53.4879 54.0212 51.7529 55.3619 49.8602C57.6488 49.6631 59.8176 49.3082 61.868 48.8745C62.1045 49.7814 62.2623 50.6489 62.42 51.4769ZM65.9688 45.3257C65.1802 45.6411 64.3127 45.9171 63.4452 46.1537C62.8143 44.1822 62.0257 42.0923 61.0793 40.0025C62.0257 37.9126 62.8537 35.8622 63.4452 33.8907C68.8867 35.4679 72.1595 37.8338 72.1595 40.0419C72.1595 41.8952 69.8725 43.8667 65.9688 45.3257Z" fill="#17A0EA"/>
</svg>
