<svg width="90" height="80" viewBox="0 0 90 80" fill="none" xmlns="http://www.w3.org/2000/svg">
<rect width="90" height="80" rx="7" fill="#00C1BA"/>
<rect width="80" height="80" transform="translate(10)" fill="#DDFCFB"/>
<path d="M69.34 26.6357L52.0309 16.4716C50.9393 15.8428 49.518 15.8428 48.4177 16.4716L30.9238 26.6357C29.7972 27.2911 29 28.5229 29 29.8404V50.1417C29 51.4592 29.818 52.6914 30.9446 53.3504L35.5665 56.0052C37.7756 57.1056 38.5564 57.1056 39.5616 57.1056C42.8325 57.1056 44.7009 55.1053 44.7009 51.6164V31.5739C44.7009 31.2909 44.5553 30.8697 44.2805 30.8697H42.0734C41.7939 30.8697 41.1682 31.2909 41.1682 31.5735V51.616C41.1682 53.1626 39.785 54.7016 37.1998 53.3944L32.424 50.6105C32.2576 50.5192 32.1402 50.3354 32.1402 50.1417V29.8404C32.1402 29.6491 32.358 29.4569 32.5256 29.3589L49.9631 19.2122C50.126 19.1189 50.3654 19.1189 50.5279 19.2122L67.7527 29.3565C67.9175 29.4569 67.8594 29.6431 67.8594 29.8404V50.1417C67.8594 50.3354 67.9313 50.524 67.7684 50.6173L50.4636 60.7699C50.3152 60.86 50.1311 60.86 49.9686 60.7699L45.5303 58.0909C45.3965 58.0123 45.2375 57.9841 45.1092 58.0567C43.8743 58.7645 43.6466 58.8586 42.4883 59.2647C42.2033 59.3651 41.7829 59.5394 42.6492 60.0304L48.4578 63.5054C49.0123 63.8293 49.6414 63.9999 50.2818 64C50.9264 64 51.5575 63.8309 52.1137 63.5054L69.3396 53.3504C70.4662 52.6866 71 51.4592 71 50.1417V29.8404C71 28.5229 70.4662 27.2943 69.34 26.6357ZM55.6563 46.9248C51.0535 46.9248 50.0396 45.6406 49.7017 43.3259C49.6624 43.0766 49.4532 42.7785 49.2024 42.7785H46.9528C46.6745 42.7785 46.4508 43.1199 46.4508 43.4002C46.4508 46.3639 48.0441 49.9548 55.6567 49.9548C61.1673 49.9548 64.3267 47.7893 64.3267 43.9571C64.3267 40.1574 61.7883 39.1602 56.4441 38.4449C51.0421 37.7228 50.4934 37.358 50.4934 36.0782C50.4934 35.0231 50.9581 33.6159 54.958 33.6159C58.5319 33.6159 59.8492 34.3916 60.3913 36.8277C60.4376 37.0567 60.6444 37.2211 60.878 37.2211H63.1366C63.2755 37.2211 63.4082 37.1643 63.5056 37.0639C63.5998 36.9559 63.6496 36.8205 63.637 36.6753C63.2873 32.4802 60.5314 30.5252 54.9576 30.5252C49.9996 30.5252 47.0419 32.6425 47.0419 36.1918C47.0419 40.0415 49.9847 41.1053 54.744 41.5813C60.4376 42.1458 60.8804 42.9873 60.8804 44.1198C60.8804 46.0868 59.3189 46.9248 55.6563 46.9248Z" fill="#00C1BA"/>
</svg>
