<svg width="90" height="80" viewBox="0 0 90 80" fill="none" xmlns="http://www.w3.org/2000/svg">
<rect width="90" height="80" rx="7" fill="#A362FF"/>
<rect width="80" height="80" transform="translate(10)" fill="#F7E5FF"/>
<path d="M58.566 48.7292C60.3004 48.5522 61.6163 47.0778 61.5564 45.3082C61.4967 43.5389 60.0014 42.1233 58.2071 42.1233H58.0876C56.2333 42.1823 54.798 43.7158 54.8578 45.5441C54.9177 46.4289 55.2764 47.1956 55.8147 47.7264C53.7812 51.6783 50.6711 54.5683 46.006 56.9865C42.8361 58.638 39.5466 59.2278 36.2572 58.8151C33.5657 58.4611 31.4724 57.2816 30.1564 55.335C28.2426 52.445 28.0632 49.3189 29.6781 46.193C30.8146 43.9517 32.6086 42.3002 33.7451 41.4744C33.5059 40.7077 33.1469 39.4102 32.9676 38.4666C24.2951 44.6595 25.1924 53.0349 27.824 56.9865C29.7976 59.9357 33.8049 61.7641 38.2308 61.7641C39.4269 61.7641 40.6231 61.6461 41.8194 61.3513C49.475 59.8767 55.2766 55.394 58.566 48.7292ZM69.0926 41.4156C64.547 36.1662 57.8484 33.2762 50.1927 33.2762H49.2358C48.6975 32.2145 47.5611 31.5067 46.3051 31.5067H46.1854C44.3315 31.5657 42.8961 33.0991 42.9558 34.9277C43.0156 36.697 44.5108 38.1126 46.3051 38.1126H46.4246C47.7404 38.0536 48.8769 37.2278 49.3553 36.1072H50.4319C54.9775 36.1072 59.2837 37.4047 63.1715 39.941C66.1619 41.8874 68.315 44.4236 69.5112 47.4905C70.5279 49.9678 70.4681 52.386 69.3915 54.4504C67.7169 57.5764 64.9059 59.2869 61.1977 59.2869C58.8053 59.2869 56.5326 58.579 55.3363 58.0482C54.6784 58.638 53.4821 59.5816 52.6448 60.1716C55.2167 61.3511 57.8484 62 60.3603 62C66.102 62 70.3485 58.8739 71.9634 55.748C73.6978 52.327 73.5781 46.4289 69.0926 41.4156ZM38.7093 49.7317C38.7691 51.5012 40.2643 52.9166 42.0586 52.9166H42.1783C44.0324 52.8578 45.4677 51.3242 45.4079 49.4958C45.3482 47.7263 43.8528 46.3109 42.0586 46.3109H41.9391C41.8194 46.3109 41.6398 46.3109 41.5205 46.3697C39.0682 42.359 38.0515 37.9946 38.4104 33.276C38.6494 29.7371 39.8457 26.67 41.9391 24.1338C43.6735 21.9515 47.0228 20.8898 49.2957 20.831C55.6353 20.713 58.3266 28.4984 58.5062 31.6245C59.2837 31.8014 60.5995 32.2144 61.4967 32.5093C60.7789 22.9545 54.798 18 49.0564 18C43.6735 18 38.7093 21.8338 36.7355 27.496C33.9843 35.0455 35.7786 42.3002 39.1279 48.0214C38.829 48.4341 38.6494 49.0828 38.7093 49.7317Z" fill="#A362FF"/>
</svg>
