<svg width="222" height="175" viewBox="0 0 222 175" fill="none" xmlns="http://www.w3.org/2000/svg">
<path d="M103 175L0 125.208V98.7922L103 49V72.6104L32.6872 106.039C29.5517 107.442 26.5731 108.688 23.7511 109.779C20.9292 110.714 18.8128 111.338 17.4018 111.649C18.9696 111.961 21.1644 112.584 23.9863 113.519C26.965 114.455 29.8653 115.623 32.6872 117.026L103 150.688V175Z" fill="#4BA3DF"/>
<path d="M119 -1.37515e-06L222 50.1874L222 76.8126L119 127L119 103.202L189.313 69.5083C192.448 68.0946 195.427 66.838 198.249 65.7384C201.071 64.7959 203.187 64.1676 204.598 63.8534C203.03 63.5393 200.836 62.9109 198.014 61.9685C195.035 61.026 192.135 59.8479 189.313 58.4341L119 24.5046L119 -1.37515e-06Z" fill="#7E7AC2"/>
</svg>
