<svg width="1022" height="175" viewBox="0 0 1022 175" fill="none" xmlns="http://www.w3.org/2000/svg">
<path d="M292.912 135.28C287.109 135.28 282.032 134.213 277.68 132.08C273.413 129.861 270.085 126.704 267.696 122.608C265.392 118.427 264.24 113.563 264.24 108.016V66.544C264.24 60.912 265.392 56.048 267.696 51.952C270.085 47.856 273.413 44.7413 277.68 42.608C282.032 40.3893 287.109 39.28 292.912 39.28C298.715 39.28 303.749 40.3893 308.016 42.608C312.283 44.8267 315.568 47.984 317.872 52.08C320.261 56.0907 321.456 60.912 321.456 66.544H307.632C307.632 61.68 306.352 57.968 303.792 55.408C301.232 52.848 297.605 51.568 292.912 51.568C288.219 51.568 284.549 52.848 281.904 55.408C279.344 57.968 278.064 61.6373 278.064 66.416V108.016C278.064 112.795 279.344 116.507 281.904 119.152C284.549 121.712 288.219 122.992 292.912 122.992C297.605 122.992 301.232 121.712 303.792 119.152C306.352 116.507 307.632 112.795 307.632 108.016H321.456C321.456 113.563 320.261 118.384 317.872 122.48C315.568 126.576 312.283 129.733 308.016 131.952C303.749 134.171 298.715 135.28 292.912 135.28ZM369.15 135.152C363.347 135.152 358.313 134.043 354.046 131.824C349.779 129.605 346.494 126.448 344.19 122.352C341.886 118.256 340.734 113.435 340.734 107.888V89.712C340.734 84.08 341.886 79.2587 344.19 75.248C346.494 71.152 349.779 67.9947 354.046 65.776C358.313 63.5573 363.347 62.448 369.15 62.448C374.953 62.448 379.987 63.5573 384.254 65.776C388.521 67.9947 391.806 71.152 394.11 75.248C396.414 79.2587 397.566 84.08 397.566 89.712V107.888C397.566 113.435 396.414 118.256 394.11 122.352C391.806 126.448 388.521 129.605 384.254 131.824C379.987 134.043 374.953 135.152 369.15 135.152ZM369.15 122.992C373.843 122.992 377.47 121.712 380.03 119.152C382.59 116.507 383.87 112.752 383.87 107.888V89.712C383.87 84.7627 382.59 81.008 380.03 78.448C377.47 75.888 373.843 74.608 369.15 74.608C364.542 74.608 360.915 75.888 358.27 78.448C355.71 81.008 354.43 84.7627 354.43 89.712V107.888C354.43 112.752 355.71 116.507 358.27 119.152C360.915 121.712 364.542 122.992 369.15 122.992ZM440.908 135.28C433.825 135.28 428.151 132.891 423.884 128.112C419.617 123.333 417.484 116.891 417.484 108.784V88.944C417.484 80.752 419.617 74.2667 423.884 69.488C428.151 64.7093 433.825 62.32 440.908 62.32C446.711 62.32 451.319 63.9413 454.732 67.184C458.145 70.3413 459.852 74.6933 459.852 80.24L456.908 77.04H460.108L459.724 60.656V40.56H473.548V134H459.852V120.56H456.908L459.852 117.36C459.852 122.907 458.145 127.301 454.732 130.544C451.319 133.701 446.711 135.28 440.908 135.28ZM445.644 123.248C449.996 123.248 453.409 121.925 455.884 119.28C458.444 116.549 459.724 112.795 459.724 108.016V89.584C459.724 84.8053 458.444 81.0933 455.884 78.448C453.409 75.7173 449.996 74.352 445.644 74.352C441.121 74.352 437.58 75.6747 435.02 78.32C432.46 80.88 431.18 84.6347 431.18 89.584V108.016C431.18 112.965 432.46 116.763 435.02 119.408C437.58 121.968 441.121 123.248 445.644 123.248ZM522.65 135.28C516.933 135.28 511.898 134.171 507.546 131.952C503.279 129.648 499.994 126.448 497.69 122.352C495.386 118.256 494.234 113.477 494.234 108.016V89.584C494.234 84.0373 495.386 79.2587 497.69 75.248C499.994 71.152 503.279 67.9947 507.546 65.776C511.898 63.472 516.933 62.32 522.65 62.32C528.453 62.32 533.487 63.472 537.754 65.776C542.021 67.9947 545.306 71.152 547.61 75.248C549.914 79.2587 551.066 84.0373 551.066 89.584V102.128H507.546V108.016C507.546 113.221 508.826 117.189 511.386 119.92C514.031 122.651 517.829 124.016 522.778 124.016C526.789 124.016 530.031 123.333 532.506 121.968C534.981 120.517 536.517 118.427 537.114 115.696H550.81C549.786 121.669 546.714 126.448 541.594 130.032C536.474 133.531 530.159 135.28 522.65 135.28ZM537.754 93.808V89.456C537.754 84.336 536.474 80.368 533.914 77.552C531.354 74.736 527.599 73.328 522.65 73.328C517.786 73.328 514.031 74.736 511.386 77.552C508.826 80.368 507.546 84.3787 507.546 89.584V92.784L538.778 92.656L537.754 93.808Z" fill="#4BA3DF"/>
<path d="M599.784 135.28C593.469 135.28 588.051 134.256 583.528 132.208C579.005 130.075 575.507 127.088 573.032 123.248C570.557 119.323 569.32 114.672 569.32 109.296H583.016C583.016 113.563 584.509 116.933 587.496 119.408C590.483 121.797 594.621 122.992 599.912 122.992C604.861 122.992 608.744 121.797 611.56 119.408C614.376 117.019 615.784 113.733 615.784 109.552C615.784 106.053 614.803 103.024 612.84 100.464C610.963 97.904 608.232 96.1547 604.648 95.216L592.872 91.76C586.045 89.7973 580.755 86.4693 577 81.776C573.331 76.9973 571.496 71.3227 571.496 64.752C571.496 59.632 572.648 55.152 574.952 51.312C577.256 47.472 580.541 44.4853 584.808 42.352C589.075 40.2187 594.109 39.152 599.912 39.152C608.445 39.152 615.272 41.456 620.392 46.064C625.597 50.672 628.243 56.8587 628.328 64.624H614.504C614.504 60.528 613.181 57.328 610.536 55.024C607.976 52.6347 604.349 51.44 599.656 51.44C595.133 51.44 591.592 52.5493 589.032 54.768C586.472 56.9013 585.192 59.9307 585.192 63.856C585.192 67.3547 586.131 70.384 588.008 72.944C589.971 75.504 592.744 77.296 596.328 78.32L608.232 81.904C615.059 83.7813 620.307 87.1093 623.976 91.888C627.645 96.6667 629.48 102.384 629.48 109.04C629.48 114.245 628.243 118.853 625.768 122.864C623.293 126.789 619.837 129.861 615.4 132.08C610.963 134.213 605.757 135.28 599.784 135.28ZM676.662 135.28C670.859 135.28 665.739 134.213 661.302 132.08C656.95 129.861 653.579 126.704 651.19 122.608C648.886 118.427 647.734 113.563 647.734 108.016V89.584C647.734 83.952 648.886 79.088 651.19 74.992C653.579 70.896 656.95 67.7813 661.302 65.648C665.739 63.4293 670.859 62.32 676.662 62.32C685.11 62.32 691.894 64.5387 697.014 68.976C702.134 73.4133 704.822 79.472 705.078 87.152H691.254C690.998 83.1413 689.59 80.0267 687.03 77.808C684.47 75.5893 681.014 74.48 676.662 74.48C671.969 74.48 668.257 75.8027 665.526 78.448C662.795 81.008 661.43 84.6773 661.43 89.456V108.016C661.43 112.795 662.795 116.507 665.526 119.152C668.257 121.797 671.969 123.12 676.662 123.12C681.014 123.12 684.47 122.011 687.03 119.792C689.59 117.573 690.998 114.459 691.254 110.448H705.078C704.822 118.128 702.134 124.187 697.014 128.624C691.894 133.061 685.11 135.28 676.662 135.28ZM725.252 134V40.56H739.076V63.6L738.948 77.04H742.276L738.948 80.24C738.948 74.608 740.612 70.2133 743.94 67.056C747.268 63.8987 751.876 62.32 757.764 62.32C764.761 62.32 770.351 64.5813 774.532 69.104C778.713 73.5413 780.804 79.5573 780.804 87.152V134H766.98V88.688C766.98 84.08 765.743 80.496 763.268 77.936C760.793 75.376 757.423 74.096 753.156 74.096C748.804 74.096 745.348 75.4613 742.788 78.192C740.313 80.8373 739.076 84.6347 739.076 89.584V134H725.252ZM829.65 135.152C823.847 135.152 818.813 134.043 814.546 131.824C810.279 129.605 806.994 126.448 804.69 122.352C802.386 118.256 801.234 113.435 801.234 107.888V89.712C801.234 84.08 802.386 79.2587 804.69 75.248C806.994 71.152 810.279 67.9947 814.546 65.776C818.813 63.5573 823.847 62.448 829.65 62.448C835.453 62.448 840.487 63.5573 844.754 65.776C849.021 67.9947 852.306 71.152 854.61 75.248C856.914 79.2587 858.066 84.08 858.066 89.712V107.888C858.066 113.435 856.914 118.256 854.61 122.352C852.306 126.448 849.021 129.605 844.754 131.824C840.487 134.043 835.453 135.152 829.65 135.152ZM829.65 122.992C834.343 122.992 837.97 121.712 840.53 119.152C843.09 116.507 844.37 112.752 844.37 107.888V89.712C844.37 84.7627 843.09 81.008 840.53 78.448C837.97 75.888 834.343 74.608 829.65 74.608C825.042 74.608 821.415 75.888 818.77 78.448C816.21 81.008 814.93 84.7627 814.93 89.712V107.888C814.93 112.752 816.21 116.507 818.77 119.152C821.415 121.712 825.042 122.992 829.65 122.992ZM906.4 135.152C900.597 135.152 895.563 134.043 891.296 131.824C887.029 129.605 883.744 126.448 881.44 122.352C879.136 118.256 877.984 113.435 877.984 107.888V89.712C877.984 84.08 879.136 79.2587 881.44 75.248C883.744 71.152 887.029 67.9947 891.296 65.776C895.563 63.5573 900.597 62.448 906.4 62.448C912.203 62.448 917.237 63.5573 921.504 65.776C925.771 67.9947 929.056 71.152 931.36 75.248C933.664 79.2587 934.816 84.08 934.816 89.712V107.888C934.816 113.435 933.664 118.256 931.36 122.352C929.056 126.448 925.771 129.605 921.504 131.824C917.237 134.043 912.203 135.152 906.4 135.152ZM906.4 122.992C911.093 122.992 914.72 121.712 917.28 119.152C919.84 116.507 921.12 112.752 921.12 107.888V89.712C921.12 84.7627 919.84 81.008 917.28 78.448C914.72 75.888 911.093 74.608 906.4 74.608C901.792 74.608 898.165 75.888 895.52 78.448C892.96 81.008 891.68 84.7627 891.68 89.712V107.888C891.68 112.752 892.96 116.507 895.52 119.152C898.165 121.712 901.792 122.992 906.4 122.992ZM993.262 134C988.91 134 985.113 133.147 981.87 131.44C978.627 129.648 976.067 127.131 974.19 123.888C972.398 120.645 971.502 116.891 971.502 112.624V53.104H948.462V40.56H985.326V112.624C985.326 115.355 986.094 117.531 987.63 119.152C989.166 120.688 991.257 121.456 993.902 121.456H1015.66V134H993.262Z" fill="#7E7AC2"/>
<path d="M103 175L0 125.208V98.7922L103 49V72.6104L32.6872 106.039C29.5517 107.442 26.5731 108.688 23.7511 109.779C20.9292 110.714 18.8128 111.338 17.4018 111.649C18.9696 111.961 21.1644 112.584 23.9863 113.519C26.965 114.455 29.8653 115.623 32.6872 117.026L103 150.688V175Z" fill="#4BA3DF"/>
<path d="M119 -1.37515e-06L222 50.1874L222 76.8126L119 127L119 103.202L189.313 69.5083C192.448 68.0946 195.427 66.838 198.249 65.7384C201.071 64.7959 203.187 64.1676 204.598 63.8534C203.03 63.5393 200.836 62.9109 198.014 61.9685C195.035 61.026 192.135 59.8479 189.313 58.4341L119 24.5046L119 -1.37515e-06Z" fill="#7E7AC2"/>
</svg>
